<svg width="103" height="95" viewBox="0 0 103 95" fill="none" xmlns="http://www.w3.org/2000/svg">
<path fill-rule="evenodd" clip-rule="evenodd" d="M44.9423 93.8139C41.7541 87.497 38.5623 81.183 35.3253 74.8945C34.5565 73.4025 34.6043 72.3156 35.5784 71.0143C36.4178 69.8938 37.1773 68.7202 38.0308 67.4015L38.031 67.4012L38.0311 67.4011L38.0312 67.4009C38.4303 66.7843 38.8499 66.136 39.3077 65.4466C43.3618 73.4454 47.1484 80.9198 51.212 88.9423C53.1931 85.0428 55.1151 81.2589 57.0352 77.4789C59.0535 73.5053 61.0697 69.5362 63.1497 65.4418C63.6129 66.1539 64.0596 66.8322 64.4913 67.488L64.4953 67.494L64.4957 67.4946C65.6203 69.2024 66.6439 70.757 67.5953 72.3538C67.8437 72.7685 67.6956 73.6027 67.4473 74.0984C64.142 80.6855 60.8196 87.2631 57.4909 93.8384C55.4666 94.0502 53.4117 94.1588 51.3313 94.1588C49.1723 94.1588 47.0407 94.0419 44.9423 93.8139ZM51.255 30.606C57.1713 30.5822 61.975 25.7677 62.0084 19.8187C62.0419 13.9174 57.1713 9.12192 51.1833 9.15052C45.3004 9.17912 40.5062 13.8697 40.4346 19.6566C40.3582 25.6676 45.2622 30.6251 51.255 30.606ZM90.9423 59.0965L90.5495 59.6912C86.1447 66.3611 81.7417 73.0283 77.2696 79.7996C72.0223 71.8892 66.9149 64.1848 61.6271 56.2083L58.938 52.152C56.3659 59.6453 53.9608 66.6578 51.5557 73.67L51.551 73.6838C51.4395 73.7076 51.3281 73.73 51.2158 73.7525C51.126 73.7705 51.0358 73.7886 50.9445 73.8077C49.5335 69.6963 48.1241 65.5832 46.6752 61.3549L46.6752 61.3548L46.6687 61.3358L46.6681 61.3342C45.6432 58.343 44.5984 55.2941 43.5193 52.1472L42.7895 53.2467L42.7822 53.2577C36.8229 62.2359 31.1123 70.8395 25.1638 79.7948C21.4717 74.2042 17.8171 68.6699 14.1854 63.1703L14.1787 63.1601C9.42401 55.9599 4.70851 48.819 -0.000854492 41.6888C6.9469 35.6587 25.6748 30.8871 39.6992 36.5644C39.3644 37.0685 39.0453 37.5804 38.7283 38.0891C37.9149 39.3943 37.1144 40.6785 36.094 41.7555C35.6213 42.256 34.0073 41.9176 33.0045 41.6363C31.3715 41.1787 30.574 41.6077 29.9771 43.2332C29.0127 45.8757 27.9488 48.4812 26.8046 51.2832L26.8045 51.2833C26.3058 52.5047 25.7918 53.7634 25.2641 55.0788C25.0338 54.591 24.825 54.1626 24.6344 53.7716L24.6343 53.7714L24.6342 53.7713C24.2718 53.0277 23.9752 52.4192 23.7218 51.7945C23.2942 50.735 22.8795 49.6699 22.4649 48.6051L22.4649 48.6051L22.4647 48.6046C21.7267 46.7089 20.9889 44.8138 20.1787 42.952C19.9017 42.318 18.9371 41.4314 18.4596 41.5267C16.5959 41.9002 14.7609 42.4222 12.7559 42.9925C12.0486 43.1937 11.32 43.401 10.5616 43.6098C12.3199 46.2594 14.0371 48.8462 15.7383 51.409C18.8881 56.1542 21.9832 60.8167 25.183 65.6421C28.5228 60.5993 31.8141 55.6312 35.1114 50.6542L35.1141 50.65C38.9815 44.8124 42.857 38.9625 46.8284 32.9655C47.4 35.2053 47.9486 37.3536 48.4829 39.4459C49.328 42.7547 50.1371 45.9232 50.9445 49.0917C51.0324 49.0963 51.1202 49.102 51.2086 49.1078L51.209 49.1078L51.2093 49.1078L51.2097 49.1079C51.3035 49.114 51.398 49.1201 51.4937 49.125C52.0848 46.82 52.675 44.515 53.2804 42.1505L53.2897 42.1142L53.2975 42.0836C54.0414 39.178 54.8085 36.1818 55.6289 32.9845L57.4144 35.6802L57.4529 35.7383C64.1316 45.8214 70.579 55.5555 77.2553 65.6421L80.5542 60.6754C84.3095 55.0218 87.9893 49.4818 91.867 43.6384C91.0935 43.4215 90.3491 43.2038 89.6246 42.992C87.6747 42.422 85.8694 41.8942 84.0311 41.5362C83.5297 41.4361 82.5079 42.4324 82.207 43.1331C80.9956 45.9338 79.8656 48.7712 78.6279 51.8788C78.1972 52.9603 77.7534 54.0745 77.2887 55.2313C76.6259 53.5967 76.0171 52.0984 75.4369 50.6705C74.809 49.1252 74.2146 47.6624 73.6214 46.1982C73.4934 45.8828 73.3611 45.569 73.2289 45.2552L73.2289 45.2551C72.8974 44.4688 72.5663 43.6832 72.3035 42.8757C71.9167 41.684 71.1957 41.0405 70.0019 41.5696C67.0557 42.8805 65.4704 41.4361 64.2623 38.9764C63.9883 38.4231 63.6484 37.9016 63.2583 37.3029L63.2583 37.3028C63.0636 37.0041 62.8565 36.6863 62.6387 36.3356C76.8303 31.9597 89.8567 33.8521 102.678 41.3265C98.7303 47.3035 94.8348 53.2023 90.9423 59.0965ZM93.8766 24.5379C93.9284 28.5624 90.5381 32.0387 86.4557 32.1418C82.0908 32.2495 78.6158 28.8856 78.597 24.5191C78.5781 20.3166 81.9166 16.9761 86.2203 16.8918C90.265 16.8121 93.8201 20.3587 93.8766 24.5379ZM9.78812 24.5021C9.774 28.7128 13.1528 32.1545 17.3129 32.1592C21.6799 32.1639 25.0964 28.7925 25.0682 24.4974C25.0446 20.4087 21.567 16.9623 17.4164 16.906C13.3599 16.8497 9.80694 20.3899 9.78812 24.5021Z" fill="#0362F2"/>
<path d="M37.368 31.5876L36.9137 31.0771C31.6133 25.12 30.7201 14.3396 37.7593 7.1152L37.7593 7.11518C45.0923 -0.410242 56.9849 -0.680918 64.3227 6.47054L64.3227 6.47058C71.7458 13.7063 71.3868 24.7694 65.84 31.049L65.389 31.5596L64.8565 31.1347C64.7464 31.047 64.62 30.9521 64.4846 30.8506C64.0891 30.5538 63.617 30.1996 63.2538 29.7967L37.368 31.5876ZM37.368 31.5876L37.8993 31.1579M37.368 31.5876L37.8993 31.1579M37.8993 31.1579C38.0752 31.0156 38.2218 30.8896 38.354 30.776C38.5965 30.5674 38.791 30.4003 39.0307 30.2495L39.0329 30.2482C39.4085 30.0101 39.7997 29.6525 39.8438 29.098C39.8833 28.6012 39.6133 28.1788 39.3961 27.8865L39.3955 27.8858C37.4316 25.2501 36.6274 22.214 36.7445 18.9725C37.0524 10.5034 44.9963 4.09998 53.5852 5.37508L53.5853 5.37509C61.6057 6.56481 67.219 14.2887 65.7955 22.1017L65.7955 22.1019M37.8993 31.1579L65.7955 22.1019M65.7955 22.1019C65.4068 24.2383 64.5957 26.1851 63.3361 27.9672M65.7955 22.1019L63.3361 27.9672M63.3361 27.9672C63.1664 28.2057 63.0691 28.5152 63.0283 28.766C63.0067 28.8991 62.9947 29.0531 63.0098 29.208C63.0228 29.3409 63.0658 29.5883 63.2536 29.7965L63.3361 27.9672Z" fill="#0362F2" stroke="#0362F2" stroke-width="1.43253"/>
</svg>