<svg width="335" height="160" viewBox="0 0 335 160" fill="none" xmlns="http://www.w3.org/2000/svg">
<path d="M0 20C0 8.95431 8.95431 0 20 0H315C326.046 0 335 8.95431 335 20V160H0V20Z" fill="#CCFFD1"/>
<path fill-rule="evenodd" clip-rule="evenodd" d="M238.974 159H96C100.268 152.804 130.646 148 167.487 148C204.327 148 234.705 152.804 238.974 159Z" fill="#021F4A" fill-opacity="0.6"/>
<path fill-rule="evenodd" clip-rule="evenodd" d="M192.028 91.8864L233.166 50.7487C233.166 50.7487 234.009 49.8049 235.177 50.9733C236.346 52.1417 237.001 52.7964 237.001 52.7964C237.001 52.7964 237.533 53.3986 237.122 54.1201C236.709 54.8417 198.252 113.539 198.252 113.539L196.991 112.511L192.028 91.8864Z" fill="#D5D9DC"/>
<path fill-rule="evenodd" clip-rule="evenodd" d="M202.338 81.5784L213.185 70.7307L215.806 86.737C212.182 92.2731 208.645 97.6731 205.709 102.158L202.338 81.5784ZM217.787 66.1288L220.09 80.1925C221.548 77.9657 222.986 75.7674 224.375 73.6481L222.389 61.5269L217.787 66.1288Z" fill="white"/>
<path fill-rule="evenodd" clip-rule="evenodd" d="M236.14 53.1377C235.767 53.79 204.373 101.716 198.285 111.006L198.252 113.538C198.252 113.538 236.708 54.8413 237.122 54.1197C237.533 53.3981 237 52.796 237 52.796C237 52.796 236.656 52.4519 236.018 51.814C236.02 51.814 236.553 52.4161 236.14 53.1377Z" fill="#B8C0C4"/>
<path fill-rule="evenodd" clip-rule="evenodd" d="M178.328 103.82L189.666 92.4822C190.758 91.3902 192.545 91.3902 193.637 92.4822L196.676 95.5214C197.995 96.8404 198.427 97.4544 198.394 99.7578L198.231 111.779C198.198 114.254 198.038 114.61 196.925 115.723L193.577 119.071C192.485 120.163 190.698 120.163 189.606 119.071L178.328 107.793C177.236 106.699 177.236 104.912 178.328 103.82ZM182.947 104.914C182.352 105.509 182.352 106.481 182.947 107.076L189.092 113.222C189.687 113.817 190.66 113.817 191.255 113.222L193.078 111.399C193.685 110.792 193.771 110.598 193.79 109.251L193.878 102.701C193.895 101.447 193.658 101.11 192.941 100.393L191.286 98.7375C190.691 98.1426 189.718 98.1426 189.123 98.7375L182.947 104.914Z" fill="#0362F2"/>
<path fill-rule="evenodd" clip-rule="evenodd" d="M189.095 113.226L190.543 114.674C191.131 115.262 191.47 115.374 192.191 114.655C192.911 113.936 193.897 112.949 194.447 112.402C194.997 111.852 195.224 111.36 195.185 109.465C195.147 107.57 195.204 103.422 195.204 103.422C195.204 103.422 195.317 102.77 193.159 100.613C193.711 101.193 193.897 101.58 193.883 102.703L193.795 109.252C193.776 110.6 193.687 110.796 193.083 111.401L191.26 113.224C190.662 113.816 189.69 113.819 189.095 113.226Z" fill="url(#paint0_linear_98_39418)"/>
<path fill-rule="evenodd" clip-rule="evenodd" d="M189.386 118.848L178.55 108.012L179.575 106.987C179.972 106.59 180.617 106.593 181.013 106.987L190.411 116.384C190.807 116.781 190.807 117.426 190.411 117.823L189.386 118.848Z" fill="url(#paint1_linear_98_39418)"/>
<path fill-rule="evenodd" clip-rule="evenodd" d="M118.418 55.7708L120.088 54.612C121.185 53.8522 122.705 54.1246 123.465 55.2213L157.078 103.666C157.838 104.762 157.566 106.282 156.469 107.042L154.799 108.201C153.702 108.96 152.182 108.688 151.423 107.591L117.807 59.147C117.047 58.0503 117.322 56.5306 118.418 55.7708Z" fill="#0362F2"/>
<path fill-rule="evenodd" clip-rule="evenodd" d="M106.381 56.4447L109.766 54.096C110.282 53.7376 110.999 53.8666 111.358 54.3827L113.556 57.551C113.914 58.0671 113.785 58.7839 113.269 59.1423L109.883 61.4911C109.367 61.8495 108.65 61.7205 108.292 61.2044L106.094 58.0361C105.735 57.52 105.864 56.8032 106.381 56.4447Z" fill="#B8C0C4"/>
<path fill-rule="evenodd" clip-rule="evenodd" d="M109.593 49.0446L116.88 43.9863C118.07 43.162 119.719 43.4582 120.543 44.6481L125.888 52.3515C126.712 53.5414 126.416 55.19 125.226 56.0143L117.939 61.0726C116.749 61.8969 115.103 61.6007 114.276 60.4108L108.931 52.7075C108.107 51.52 108.403 49.8713 109.593 49.0446Z" fill="#B8C0C4"/>
<path fill-rule="evenodd" clip-rule="evenodd" d="M117.172 46.2442L116.316 44.3805C116.316 44.3805 118.094 43.1476 119.456 42.2014C120.82 41.2552 128.287 38.3569 132.729 41.5945C132.729 41.5945 133.522 42.23 132.781 42.8728C132.043 43.5179 128.376 41.5849 121.652 46.2513L117.172 46.2442Z" fill="#B8C0C4"/>
<path fill-rule="evenodd" clip-rule="evenodd" d="M97.8363 57.2051L103.229 53.4634C104.108 52.8541 105.329 53.0739 105.939 53.9532L112.065 62.7819C112.677 63.6612 112.454 64.8821 111.575 65.4914L106.182 69.2332C105.303 69.8449 104.084 69.6226 103.473 68.7434L97.3464 59.9147C96.7348 59.033 96.9546 57.8144 97.8363 57.2051Z" fill="#D5D9DC"/>
<path fill-rule="evenodd" clip-rule="evenodd" d="M110.935 62.513C111.544 63.3923 111.325 64.6109 110.445 65.2225L105.053 68.9643C104.756 69.1698 104.419 69.2821 104.08 69.306C104.716 69.6787 105.538 69.6763 106.18 69.2319L111.573 65.4901C112.452 64.8809 112.675 63.6599 112.063 62.7806L111.487 61.9515L106.512 54.7834L105.937 53.9543C105.533 53.3713 104.861 53.0798 104.2 53.1228C104.434 53.2614 104.642 53.4502 104.806 53.6867L105.874 55.2255L110.849 62.3935L110.935 62.513Z" fill="#B8C0C4"/>
<path fill-rule="evenodd" clip-rule="evenodd" d="M99.0352 57.7878L99.0878 57.7519C99.6995 57.329 100.543 57.4819 100.968 58.0912L105.214 64.208C105.637 64.8173 105.484 65.6631 104.875 66.0884L104.822 66.1243C104.213 66.5472 103.367 66.3943 102.942 65.785L98.6983 59.6682C98.273 59.0565 98.426 58.2107 99.0352 57.7878Z" fill="white"/>
<path fill-rule="evenodd" clip-rule="evenodd" d="M108.139 55.8133L109.518 54.8551C109.742 54.6974 110.055 54.7548 110.21 54.9794L112.019 57.5862C112.174 57.8108 112.12 58.1238 111.893 58.2791L110.514 59.2372C110.289 59.3925 109.976 59.3376 109.821 59.113L108.012 56.5062C107.857 56.2816 107.914 55.9686 108.139 55.8133ZM110.471 49.4862L116.079 45.594C116.994 44.9584 118.263 45.1878 118.898 46.1029L123.01 52.0309C123.646 52.946 123.416 54.2148 122.501 54.8503L116.893 58.7426C115.978 59.3782 114.71 59.1488 114.076 58.2337L109.964 52.3057C109.326 51.3882 109.556 50.1194 110.471 49.4862Z" fill="#D5D9DC"/>
<path fill-rule="evenodd" clip-rule="evenodd" d="M111.38 50.3775L114.185 48.4326C114.644 48.1148 115.277 48.2295 115.595 48.6883L117.652 51.6511C117.97 52.1074 117.855 52.743 117.396 53.0608L114.591 55.0057C114.132 55.3235 113.499 55.2088 113.182 54.7525L111.124 51.7896C110.809 51.3285 110.921 50.6953 111.38 50.3775Z" fill="white"/>
<path fill-rule="evenodd" clip-rule="evenodd" d="M122.972 61.4173C123.945 60.7435 125.29 60.9872 125.964 61.9573L152.378 100.022C153.052 100.995 152.808 102.34 151.838 103.014C150.866 103.687 149.521 103.444 148.847 102.474L122.432 64.4112C121.759 63.4387 122 62.0935 122.972 61.4173Z" fill="#68A1F7"/>
<path fill-rule="evenodd" clip-rule="evenodd" d="M158.824 34.3696C159.669 33.8654 159.947 32.7687 159.442 31.9229C158.938 31.077 157.842 30.7999 156.996 31.304L149.472 35.8151C149.431 35.839 149.39 35.8653 149.352 35.8916C149.34 35.9011 145.109 38.8448 146.459 45.0452L148.867 56.1008C149.077 57.0661 150.031 57.6802 150.998 57.4699C151.966 57.2596 152.578 56.3063 152.368 55.3386L149.959 44.283C149.171 40.6703 151.113 39.0384 151.388 38.8281L158.824 34.3696Z" fill="#D5D9DC"/>
<path fill-rule="evenodd" clip-rule="evenodd" d="M153.877 33.1726L149.78 35.6289C150.315 36.5129 150.788 38.0493 149.99 38.575C148.886 39.3013 148.298 42.0801 148.647 43.6834C148.996 45.2891 149.125 45.8745 149.455 47.3869C149.785 48.8994 149.553 49.4657 148.504 49.695L147.524 49.9077L148.308 53.5085C149.476 53.6709 151.144 53.8908 152.069 53.9529L149.961 44.2831C149.173 40.6704 151.115 39.0385 151.39 38.8282L155.959 36.09C155.297 34.9814 154.542 33.9778 153.877 33.1726Z" fill="#B8C0C4"/>
<path fill-rule="evenodd" clip-rule="evenodd" d="M183.591 109.444C184.571 109.551 185.278 110.43 185.173 111.41C185.066 112.39 184.186 113.099 183.207 112.992L165.869 111.059C165.822 111.054 165.776 111.047 165.731 111.037V111.04C165.717 111.037 160.644 110.12 159.292 103.919L148.518 54.4716C148.308 53.5039 148.919 52.5506 149.887 52.3403C150.852 52.1301 151.808 52.7417 152.018 53.7094L162.792 103.157C163.58 106.77 166.022 107.446 166.359 107.523L183.591 109.444Z" fill="#D5D9DC"/>
<path fill-rule="evenodd" clip-rule="evenodd" d="M183.593 109.444C184.573 109.551 185.28 110.43 185.175 111.41C185.067 112.39 184.188 113.099 183.208 112.992L179.132 112.538L178.828 111.147C178.592 110.067 177.923 109.663 176.403 109.511C174.884 109.358 165.904 108.502 165.904 108.502C165.904 108.502 162.846 108.555 161.823 103.864C160.801 99.1741 151.683 57.3197 151.683 57.3197C151.683 57.3197 151.535 56.3257 150.562 56.5384L149.04 56.8705L148.517 54.474C148.367 53.7858 148.637 53.1025 149.153 52.6915L150.319 52.3044C151.121 52.3259 151.838 52.8922 152.017 53.7118L162.791 103.16C163.58 106.772 166.022 107.448 166.358 107.525L183.593 109.444Z" fill="#B8C0C4"/>
<path fill-rule="evenodd" clip-rule="evenodd" d="M169.421 51.3271L149.285 55.7139C148.741 55.8334 148.198 55.4845 148.079 54.9398L147.524 52.3927C147.405 51.8479 147.754 51.3056 148.299 51.1861L168.434 46.7992C168.979 46.6797 169.521 47.0286 169.64 47.5734L170.195 50.118C170.314 50.6652 169.965 51.21 169.421 51.3271Z" fill="#D5D9DC"/>
<path fill-rule="evenodd" clip-rule="evenodd" d="M184.046 109.713L182.34 110.086C181.975 110.165 181.612 109.933 181.533 109.568L167.412 44.7562C167.333 44.393 167.565 44.0274 167.93 43.9486L169.636 43.5758C170.002 43.497 170.365 43.7311 170.444 44.0943L184.565 108.903C184.644 109.271 184.412 109.634 184.046 109.713Z" fill="#0362F2"/>
<path fill-rule="evenodd" clip-rule="evenodd" d="M184.046 109.713L183.551 109.821L169.141 43.6834L169.635 43.5758C170.001 43.497 170.364 43.7311 170.443 44.0943L184.564 108.903C184.645 109.271 184.411 109.634 184.046 109.713Z" fill="#68A1F7"/>
<path fill-rule="evenodd" clip-rule="evenodd" d="M185.852 113.199L182.148 114.007C181.358 114.179 180.567 113.673 180.395 112.882L179.408 108.356C179.236 107.563 179.742 106.774 180.533 106.602L184.237 105.795C185.03 105.623 185.818 106.129 185.991 106.92L186.977 111.446C187.149 112.239 186.643 113.027 185.852 113.199Z" fill="#D5D9DC"/>
<path fill-rule="evenodd" clip-rule="evenodd" d="M150.317 34.7351L152.477 38.3861C153.003 39.2749 154.16 39.5712 155.048 39.0455L168.412 31.1415C169.299 30.6159 169.597 29.4594 169.072 28.5706L166.912 24.9196C166.386 24.0308 165.229 23.7345 164.341 24.2602L150.977 32.1642C150.09 32.6922 149.794 33.8463 150.317 34.7351Z" fill="#0362F2"/>
<path fill-rule="evenodd" clip-rule="evenodd" d="M151.98 33.9564L153.242 36.0901C153.548 36.6109 154.226 36.783 154.745 36.4771L162.9 31.653C163.418 31.3448 163.593 30.671 163.284 30.1501L162.023 28.0164C161.717 27.4979 161.041 27.3235 160.52 27.6317L152.363 32.4558C151.846 32.7617 151.672 33.4379 151.98 33.9564Z" fill="#68A1F7"/>
<path fill-rule="evenodd" clip-rule="evenodd" d="M184.094 106.744C184.548 106.914 184.911 107.303 185.021 107.81L186.007 112.335C186.072 112.627 186.043 112.916 185.943 113.176C186.681 112.966 187.145 112.206 186.978 111.446L185.991 106.921C185.819 106.13 185.028 105.621 184.237 105.796L183.902 105.867L182.746 106.12L180.868 106.529L180.533 106.601C180.032 106.711 179.645 107.067 179.473 107.513C179.504 107.504 179.535 107.497 179.563 107.49L181.009 107.174L182.887 106.766L183.267 106.682C183.554 106.622 183.838 106.649 184.094 106.744Z" fill="#B8C0C4"/>
<path fill-rule="evenodd" clip-rule="evenodd" d="M184.018 112.533L181.963 112.98C181.524 113.076 181.086 112.794 180.991 112.357L180.444 109.845C180.348 109.406 180.63 108.968 181.07 108.873L183.124 108.426C183.564 108.331 184.001 108.612 184.097 109.05L184.644 111.561C184.74 112.001 184.458 112.438 184.018 112.533Z" fill="white"/>
<path fill-rule="evenodd" clip-rule="evenodd" d="M172.55 52.1535L168.847 52.9587C168.054 53.1307 167.265 52.6242 167.093 51.8333L166.106 47.3078C165.934 46.517 166.441 45.7261 167.232 45.5541L170.935 44.7465C171.728 44.5744 172.517 45.081 172.689 45.8718L173.676 50.3997C173.848 51.1929 173.341 51.9814 172.55 52.1535Z" fill="#D5D9DC"/>
<path fill-rule="evenodd" clip-rule="evenodd" d="M170.792 45.697C171.246 45.8667 171.609 46.2561 171.719 46.7627L172.706 51.2881C172.771 51.5796 172.742 51.8688 172.642 52.1292C173.38 51.9189 173.843 51.1591 173.676 50.3969L172.689 45.8715C172.517 45.0806 171.729 44.5716 170.936 44.7461L170.601 44.8177L169.445 45.0686L167.567 45.4772L167.232 45.5489C166.73 45.6588 166.343 46.0148 166.171 46.4616C166.202 46.4521 166.231 46.4449 166.262 46.4377L167.707 46.1223L169.586 45.7138L169.965 45.6301C170.252 45.5752 170.537 45.6015 170.792 45.697Z" fill="#B8C0C4"/>
<path fill-rule="evenodd" clip-rule="evenodd" d="M170.715 51.4862L168.661 51.933C168.221 52.0286 167.784 51.749 167.688 51.3094L167.141 48.7981C167.045 48.3585 167.327 47.9212 167.767 47.8257L169.822 47.3789C170.261 47.2833 170.699 47.5652 170.794 48.0025L171.341 50.5137C171.437 50.9533 171.155 51.3906 170.715 51.4862Z" fill="white"/>
<path fill-rule="evenodd" clip-rule="evenodd" d="M151.53 51.4872L164.107 48.7466C164.652 48.6272 165.194 48.976 165.311 49.5208L165.866 52.0654C165.868 52.0774 165.871 52.0869 165.873 52.0989L167.092 51.8337L166.105 47.3082L151.319 50.5315L148.297 51.1885C148.125 51.2268 147.972 51.3056 147.848 51.4155C147.587 51.6449 147.451 52.0009 147.518 52.3617L148.029 52.2494L151.53 51.4872Z" fill="#B8C0C4"/>
<path fill-rule="evenodd" clip-rule="evenodd" d="M148.955 53.4151C148.881 53.0734 149.096 52.7389 149.438 52.6649C149.78 52.5908 150.114 52.8058 150.191 53.1475C150.265 53.4892 150.05 53.8261 149.708 53.9002C149.366 53.9742 149.029 53.7568 148.955 53.4151Z" fill="#0362F2"/>
<path d="M175.025 120.269L176.97 120.782L178.912 121.313L181.861 114.62L182.231 108.943L180.288 108.422L178.343 107.899L175.823 112.998L175.025 120.269Z" fill="#D5D9DC"/>
<path d="M191.127 60.2644L178.341 107.905L182.23 108.948L195.016 61.308L191.127 60.2644Z" fill="#EEEDE3"/>
<path d="M188.924 55.8167L198.945 58.5047C199.927 58.7676 200.51 59.7783 200.245 60.7603L200.235 60.7961C199.972 61.7782 198.962 62.3612 197.98 62.096L187.959 59.4079C186.977 59.1451 186.394 58.1344 186.659 57.1524L186.668 57.1165C186.931 56.1369 187.942 55.5539 188.924 55.8167Z" fill="#0362F2"/>
<path d="M191.017 56.3806L194.034 57.1906L197.052 58.0006C197.052 58.0006 198.144 53.9052 200.514 54.5408L206.036 33.9684C206.724 31.4046 205.205 28.7691 202.641 28.081L201.9 27.8827L201.16 27.6844C198.596 26.9962 195.96 28.5159 195.272 31.0796L189.75 51.652C192.123 52.2876 191.017 56.3806 191.017 56.3806Z" fill="#0362F2"/>
<path d="M201.813 33.2748C201.994 32.601 202.687 32.1996 203.361 32.3812C204.035 32.5628 204.436 33.2557 204.255 33.9295L199.822 50.4448C199.641 51.1186 198.948 51.52 198.274 51.3384C197.6 51.1568 197.199 50.4639 197.38 49.7901L201.813 33.2748Z" fill="#68A1F7"/>
<path d="M197.46 32.107C197.641 31.4332 198.334 31.0318 199.008 31.2134C199.682 31.3949 200.083 32.0879 199.902 32.7617L195.469 49.2769C195.288 49.9507 194.595 50.3521 193.921 50.1705C193.247 49.989 192.846 49.296 193.027 48.6222L197.46 32.107Z" fill="#68A1F7"/>
<path d="M195.004 49.7633L199.437 33.248" stroke="#064CB7" stroke-width="1.0549" stroke-miterlimit="10" stroke-linecap="round"/>
<path d="M199.359 50.9312L203.791 34.4159" stroke="#064CB7" stroke-width="1.0549" stroke-miterlimit="10" stroke-linecap="round"/>
<path fill-rule="evenodd" clip-rule="evenodd" d="M122.093 108.104H152.13H156.797H217.895C219.89 108.104 221.168 109.736 220.736 111.731L212.54 149.542C212.108 151.538 210.122 153.169 208.127 153.169C193.057 153.169 146.928 153.169 131.861 153.169C129.866 153.169 127.88 151.538 127.448 149.542L119.252 111.731C118.822 109.736 120.101 108.104 122.093 108.104Z" fill="#0362F2"/>
<path opacity="0.4" fill-rule="evenodd" clip-rule="evenodd" d="M207.13 140.528V122.478C207.13 120.887 205.827 119.585 204.236 119.585C202.645 119.585 201.342 120.887 201.342 122.478V140.528C201.342 142.121 202.645 143.421 204.236 143.421C205.827 143.421 207.13 142.119 207.13 140.528ZM190.404 140.528V122.478C190.404 120.887 189.102 119.585 187.51 119.585C185.919 119.585 184.617 120.887 184.617 122.478V140.528C184.617 142.121 185.919 143.421 187.51 143.421C189.104 143.421 190.404 142.119 190.404 140.528Z" fill="white"/>
<path opacity="0.4" fill-rule="evenodd" clip-rule="evenodd" d="M155.375 140.528V122.478C155.375 120.887 154.073 119.585 152.482 119.585C150.891 119.585 149.588 120.887 149.588 122.478V140.528C149.588 142.121 150.891 143.421 152.482 143.421C154.073 143.421 155.375 142.119 155.375 140.528ZM138.652 140.528V122.478C138.652 120.887 137.35 119.585 135.759 119.585C134.167 119.585 132.865 120.887 132.865 122.478V140.528C132.865 142.121 134.167 143.421 135.759 143.421C137.35 143.421 138.652 142.119 138.652 140.528Z" fill="white"/>
<path fill-rule="evenodd" clip-rule="evenodd" d="M156.194 81.8853H183.795C188.135 81.8853 192.079 83.6606 194.939 86.5182C197.291 88.8694 198.908 91.9564 199.41 95.3899H197.267C196.784 92.5394 195.41 89.9804 193.444 88.014C190.968 85.5386 187.552 83.9998 183.795 83.9998H156.194C152.438 83.9998 149.023 85.5362 146.545 88.014C144.579 89.9804 143.205 92.5394 142.722 95.3899H140.579C141.081 91.954 142.698 88.8694 145.05 86.5182C147.907 83.6606 151.852 81.8853 156.194 81.8853Z" fill="#7FA0E4"/>
<path fill-rule="evenodd" clip-rule="evenodd" d="M127.842 93.3063H212.148C216.872 93.3063 220.738 97.1699 220.738 101.894V111.731H119.252V101.894C119.252 97.1699 123.118 93.3063 127.842 93.3063Z" fill="#0362F2"/>
<path fill-rule="evenodd" clip-rule="evenodd" d="M160.972 80.05H179.021C180.612 80.05 181.914 81.3523 181.914 82.9436C181.914 84.5349 180.612 85.8371 179.021 85.8371H160.972C159.38 85.8371 158.078 84.5349 158.078 82.9436C158.076 81.3523 159.378 80.05 160.972 80.05Z" fill="#0362F2"/>
<path fill-rule="evenodd" clip-rule="evenodd" d="M118.925 108.837H221.063C222.654 108.837 223.956 110.14 223.956 111.731C223.956 113.322 222.654 114.624 221.063 114.624H118.925C117.333 114.624 116.031 113.322 116.031 111.731C116.031 110.14 117.333 108.837 118.925 108.837Z" fill="#68A1F7"/>
<path fill-rule="evenodd" clip-rule="evenodd" d="M163.317 117.183V107.148C163.317 105.514 164.653 104.178 166.287 104.178H173.702C175.336 104.178 176.672 105.514 176.672 107.148V117.186C176.672 118.818 175.336 120.156 173.702 120.156H166.287C164.655 120.153 163.317 118.818 163.317 117.183ZM166.579 115.377C166.579 116.213 167.262 116.897 168.098 116.897H171.893C172.729 116.897 173.412 116.213 173.412 115.377V108.954C173.412 108.118 172.729 107.435 171.893 107.435H168.098C167.262 107.435 166.579 108.118 166.579 108.954V115.377Z" fill="white"/>
<path fill-rule="evenodd" clip-rule="evenodd" d="M181.24 84.0032C180.717 84.7702 179.84 85.2743 178.848 85.2743H160.799C159.807 85.2743 158.928 84.7678 158.405 84.0032C158.297 83.8455 158.204 83.6734 158.128 83.4966C158.161 83.6711 158.211 83.8407 158.276 84.0032C158.701 85.076 159.75 85.8382 160.969 85.8382H179.018C180.236 85.8382 181.285 85.076 181.711 84.0032C181.84 83.6758 181.911 83.3174 181.911 82.9447C181.911 82.572 181.84 82.2159 181.711 81.8862C181.704 81.8671 181.696 81.848 181.687 81.8289C181.692 81.848 181.694 81.8671 181.699 81.8862C181.727 82.0463 181.742 82.2112 181.742 82.3808C181.742 82.9805 181.558 83.5396 181.24 84.0032Z" fill="#064CB7"/>
<path fill-rule="evenodd" clip-rule="evenodd" d="M161.441 80.5903H176.33C177.276 80.5903 178.052 81.3645 178.052 82.3131C178.052 83.2616 177.278 84.0358 176.33 84.0358H161.441C160.495 84.0358 159.719 83.2616 159.719 82.3131C159.721 81.3645 160.495 80.5903 161.441 80.5903Z" fill="#68A1F7"/>
<defs>
<linearGradient id="paint0_linear_98_39418" x1="189.096" y1="107.882" x2="195.204" y2="107.882" gradientUnits="userSpaceOnUse">
<stop stop-color="#FF63DE"/>
<stop offset="1" stop-color="#B122E5"/>
</linearGradient>
<linearGradient id="paint1_linear_98_39418" x1="178.549" y1="112.768" x2="190.707" y2="112.768" gradientUnits="userSpaceOnUse">
<stop stop-color="#FF63DE"/>
<stop offset="1" stop-color="#B122E5"/>
</linearGradient>
</defs>
</svg>
