<svg width="335" height="161" viewBox="0 0 335 161" fill="none" xmlns="http://www.w3.org/2000/svg">
<path d="M107.559 62.5099C107.215 66.8704 104.244 70.8346 99.9054 70.6799C95.5667 70.525 92.3097 67.0076 92.2526 62.1765C92.1955 57.3453 96.114 53.5891 100.453 53.7439C104.792 53.8986 107.939 57.6933 107.559 62.5099Z" fill="#778B9C"/>
<path d="M0 20C0 8.95431 8.95431 0 20 0H315C326.046 0 335 8.95431 335 20V160H0V20Z" fill="#E2CEBA"/>
<path d="M118.615 121.591C118.615 120.374 119.458 26.6785 116.507 25.8673C113.555 25.056 15.7304 24.2448 13.2005 26.2728C10.6705 28.3009 13.2005 145.521 12.3571 145.927C11.5137 146.333 8.56221 146.333 8.56221 146.333C8.56221 146.333 7.29724 158.095 8.56221 158.906C9.82717 159.718 133.914 160.904 134.697 158.891C135.481 156.879 134.638 143.493 133.373 144.305C132.108 145.116 119.88 145.116 119.458 143.899C119.037 142.682 118.615 121.591 118.615 121.591Z" fill="#D0BAA4"/>
<path d="M67.8088 30.5815C88.2982 30.5452 107.68 30.6407 107.68 30.6407C110.207 31.0626 109.786 149.184 108.101 151.715C107.305 152.91 88.0879 152.882 67.8088 152.431V30.5815ZM20.4937 31.4845C21.2742 30.8983 40.0411 30.6742 59.963 30.6024V152.237C39.9369 151.697 21.0556 150.843 20.0725 150.449C17.9665 149.606 18.809 32.7501 20.4937 31.4845Z" fill="#E2CEBA"/>
<path d="M201.436 100.939H335V133.137H205.837C203.03 133.137 203.035 136.295 205.837 136.295H335V152.672C335 153.121 334.946 153.56 334.834 153.988C333.981 157.408 329.855 160 324.896 160H201.43C200.703 159.933 200.294 159.869 200.235 159.805C199.55 159.097 200.488 126.568 201.436 100.939ZM216.489 97.2242C216.882 86.7079 217.265 77.2306 217.487 71.8439H243.157C243.284 68.776 251.318 46.1981 253.33 44.7389C255.477 43.1814 308.736 44.4273 310.024 45.3619C310.581 45.7655 309.213 51.053 307.481 56.9285C308.882 60.2262 310.366 63.5043 311.922 66.7653C312.683 68.3602 313.464 69.9501 314.266 71.5344C314.318 71.6371 314.375 71.7407 314.43 71.8439H333.675C333.797 71.8439 333.913 71.8365 334.025 71.8259V97.2242H216.489ZM303.943 47.2856C303.113 46.3824 259.941 46.6835 257.866 46.9845C255.79 47.2856 250.394 67.4562 250.394 68.3593C250.394 69.1104 285.699 69.0287 297.592 68.9798C300.631 62.4181 304.579 47.9779 303.943 47.2856ZM305.706 62.7687C304.687 66.0437 303.715 69.0548 303.071 71.0289C305.213 71.024 307.351 71.0869 309.496 71.0403C308.197 68.2922 306.959 65.5277 305.706 62.7687Z" fill="#D0BAA4"/>
<path d="M71.4508 148.04C79.5627 148.087 87.6747 148.102 95.7868 148.085C115.026 148.043 134.263 147.825 153.499 147.488C152.005 133.35 149.231 113.489 147.73 109.581C145.609 104.059 148.154 79.8489 145.185 75.6014C142.682 72.0188 72.6697 69.6549 67.5807 73.9024C62.4919 78.1498 64.1882 95.5645 64.6122 109.581C64.9229 119.851 68.6471 134.452 71.4508 148.04Z" fill="#EA4550"/>
<path d="M82.0236 128.899C83.4762 134.795 85.0687 142.001 86.3857 148.588C86.965 148.608 87.5446 148.624 88.1238 148.647C86.7861 141.917 85.1552 134.518 83.6706 128.491C80.5363 115.769 80.7684 108.239 81.0139 100.267C81.0812 98.0856 81.1508 95.8296 81.1508 93.4412C81.1508 75.5244 76.4624 73.2994 75.9278 73.1045C75.4882 72.9452 74.9844 73.165 74.8242 73.6061C74.6641 74.047 74.8744 74.5277 75.3147 74.6882C75.3561 74.7074 79.4546 76.8083 79.4546 93.4414C79.4546 95.8036 79.3855 98.0464 79.3185 100.215C79.0693 108.307 78.8336 115.95 82.0236 128.899Z" fill="#BD2328"/>
<path d="M214.696 112.881C214.097 120.181 207.096 150.026 197.434 160.262H181.595C171.838 153.659 163.621 139.942 163.621 139.942L187.793 117.855L192.458 95.7681C192.458 95.7681 197.839 98.1382 203.314 101.353C209.077 104.739 214.937 109.058 214.721 112.546C214.713 112.652 214.708 112.762 214.696 112.881Z" fill="white"/>
<path d="M198.818 105.962C198.818 105.962 211.892 113.879 214.695 112.881C214.708 112.762 214.712 112.652 214.72 112.546C214.936 109.059 209.076 104.739 203.313 101.354C203.3 101.349 203.292 101.345 203.279 101.341C196.697 99.1662 198.818 105.962 198.818 105.962Z" fill="#1A1A1A"/>
<path d="M191.821 98.5288C191.821 98.5288 195.638 82.3885 196.486 80.6895C197.334 78.9905 197.758 77.2915 200.726 75.1678C203.695 73.0441 206.807 68.0217 208.148 70.708C209.42 73.2564 205.391 77.2915 205.391 77.2915C205.391 77.2915 204.755 79.2029 205.179 80.0523C205.603 80.9018 213.873 80.6893 213.873 80.6893C213.024 78.1409 213.873 76.0171 214.721 76.4419C215.569 76.8666 217.689 79.4152 218.113 79.8399C218.204 79.9311 218.274 80.0634 218.33 80.2118C218.862 79.3142 219.421 78.4311 219.992 77.5587C220.002 77.5401 220.011 77.5226 220.022 77.5038C221.131 75.5043 223.202 73.8935 224.05 74.3182C224.898 74.7429 223.626 77.7162 223.626 77.7162C227.019 76.0172 228.291 76.8666 228.291 77.7162C228.291 78.5657 217.689 87.4853 217.689 87.4853C217.689 87.4853 216.841 89.6091 215.145 90.4585C213.449 91.3079 208.784 92.5822 207.512 93.8564C206.239 95.1307 204.755 109.36 204.755 109.36C190.761 102.989 191.821 98.5288 191.821 98.5288Z" fill="#E9866B"/>
<path d="M196.486 87.7607C197.694 86.0775 199.171 84.3533 201.329 84.0113C204.093 83.573 207.334 84.7363 209.964 85.4322C210.925 85.6863 210.519 87.166 209.554 86.9232C207.381 86.3768 205.15 85.7518 202.906 85.6137C200.464 85.4638 199.175 87.0215 197.74 88.7297C197.163 89.417 195.955 88.5003 196.486 87.7607ZM211.54 87.0961C211.947 86.3321 212.541 85.7038 213.325 85.321C213.87 85.0549 214.114 84.9894 214.242 84.3052C214.368 83.632 214.373 82.8294 214.159 82.1879C213.645 80.6403 212.558 78.1257 213.783 76.6107C214.118 76.1963 214.665 75.9667 215.157 76.2361C215.558 76.4562 215.857 76.9619 216.143 77.2991C216.543 77.7711 216.943 78.2431 217.344 78.7151C217.869 79.3349 218.724 80.0019 218.813 80.8633C218.948 82.1645 218.719 83.6443 218.628 84.9482C218.594 85.4265 217.873 85.4384 217.875 84.9482C217.88 83.8929 217.92 82.8371 217.953 81.7823C217.992 80.5178 217.252 79.9099 216.479 78.9988C216.213 78.6841 215.946 78.3695 215.679 78.0548C215.393 77.7184 214.894 76.7002 214.345 77.2738C213.804 77.8404 214.221 79.6791 214.372 80.2871C214.554 81.0222 214.983 81.6919 215.132 82.4272C215.278 83.1441 215.169 84.2108 215.044 84.934C214.964 85.3902 214.869 85.5819 214.462 85.8052C214.068 86.0217 213.624 86.0736 213.246 86.3476C212.814 86.66 212.517 87.0574 212.269 87.5234C212.013 88.004 211.284 87.577 211.54 87.0961ZM221.548 82.6799C222.104 80.9474 222.799 79.246 223.448 77.5466C223.625 77.0832 224.372 77.2749 224.202 77.7547C223.594 79.4691 223.02 81.2144 222.321 82.8934C222.129 83.3546 221.385 83.1861 221.548 82.6799Z" fill="#D97559"/>
<path d="M183.174 119.114C178.458 129.516 174.29 140.16 169.816 150.672C169.625 151.12 168.395 156.681 167.566 160.262H67.9268C66.9342 158.389 66.2505 155.854 65.8851 152.371C64.8122 142.135 81.1516 101.826 86.2404 95.0305C89.0986 91.212 91.0239 88.8675 93.8144 86.646C94.1408 86.3827 94.4759 86.1235 94.8321 85.8645C96.8294 84.3991 99.306 82.9126 102.779 81.0139C108.585 77.8411 114.551 74.6726 119.564 71.3977C119.929 71.1599 120.289 70.9219 120.641 70.6799C123.241 68.9215 125.543 67.1333 127.375 65.2984C127.575 65.0987 127.765 64.8991 127.952 64.691C128.032 64.6018 128.113 64.5084 128.194 64.4149C130.98 61.225 132.668 57.1051 133.605 54.1657C134.305 51.9698 134.584 50.4322 134.584 50.4322L136.175 49.073L137.82 47.6627L138.138 47.3909L138.236 47.306L149.215 37.9021C149.215 37.9021 148.863 38.879 148.379 40.4804C148.218 41.0156 148.04 41.6187 147.858 42.277C147.654 43.0033 147.446 43.7976 147.243 44.6471C147.06 45.3947 146.882 46.1803 146.713 46.9959C146.53 47.8751 146.361 48.7841 146.212 49.7101C145.822 52.1226 145.585 54.6499 145.661 57.0114C145.695 58.154 145.805 59.2582 146.013 60.2947C146.038 60.4433 146.068 60.5835 146.102 60.7279C146.399 62.0405 146.857 63.2339 147.518 64.2364C147.633 64.4105 147.777 64.6059 147.942 64.8184C148.002 64.8905 148.061 64.9713 148.125 65.0477C149.244 66.4537 151.195 68.5518 153.137 71.1938C153.214 71.2958 153.29 71.3977 153.362 71.5039C153.905 72.2515 154.444 73.0373 154.961 73.8655C155.173 74.2011 155.381 74.5409 155.58 74.8892C155.758 74.9955 155.936 75.1016 156.123 75.2078C159.74 77.3358 164.926 80.19 169.625 83.8641C169.956 84.1233 170.287 84.3866 170.613 84.6542C171.402 85.2956 172.17 85.9667 172.908 86.6632C173.187 86.9224 173.463 87.1857 173.73 87.4533C174.197 87.9163 174.646 88.3878 175.083 88.8719C180.867 95.2814 181.168 102.923 184.493 112.161C184.692 112.721 184.904 113.282 185.133 113.855C185.206 114.038 185.278 114.225 185.354 114.412C185.146 114.849 184.938 115.287 184.739 115.724C184.205 116.85 183.687 117.979 183.174 119.114Z" fill="white"/>
<path d="M161.386 113.918C161.361 113.918 161.336 113.918 161.311 113.915C160.844 113.874 160.499 113.462 160.54 112.995C160.565 112.697 161.606 100.593 162.094 98.8507C162.221 98.3986 162.688 98.1331 163.14 98.262C163.591 98.3889 163.854 98.8576 163.728 99.3093C163.358 100.63 162.403 111.161 162.229 113.143C162.191 113.585 161.82 113.918 161.386 113.918ZM148.154 130.497C148.154 130.849 147.869 131.134 147.517 131.134C147.165 131.134 146.881 130.849 146.881 130.497C146.881 125.578 146.021 94.7629 145.199 91.8788C144.588 89.7466 139.973 80.8866 136.95 76.4522C133.595 81.9483 129.011 88.7315 128.96 88.8038C128.837 88.9906 128.625 89.0926 128.4 89.0841C128.176 89.0714 127.976 88.944 127.87 88.7444C124.308 81.9824 121.06 74.7915 119.563 71.3977C119.927 71.1599 120.288 70.9221 120.64 70.6799C122.018 73.8103 125.08 80.6189 128.502 87.2068C129.944 85.0533 133.693 79.4042 136.373 74.9528C136.483 74.7659 136.682 74.6513 136.899 74.6427C137.111 74.6257 137.319 74.7404 137.442 74.9188C137.789 75.4243 145.606 88.4129 146.471 91.4541C147.34 94.4911 148.154 125.395 148.154 130.497ZM155.579 74.889C155.38 74.5408 155.172 74.2009 154.96 73.8654C154.744 76.295 154.425 79.9478 154.035 84.6157C152.377 82.0376 149.154 77.0553 148.009 75.4158C147.906 75.269 147.753 75.1782 147.59 75.1511C147.432 75.125 147.265 75.1584 147.123 75.2587C146.835 75.4584 146.767 75.8576 146.966 76.1464C147.107 76.3473 147.28 76.6014 147.48 76.8973C149.447 79.8167 153.93 86.8026 153.98 86.8797C154.099 87.0665 154.302 87.1728 154.514 87.1728C154.565 87.1728 154.616 87.1686 154.667 87.1558C154.934 87.0878 155.125 86.8627 155.15 86.591C155.545 81.7956 155.88 77.939 156.122 75.2077C155.935 75.1014 155.757 74.9951 155.579 74.889Z" fill="#E2E2E2"/>
<path d="M138.838 147.095C138.838 147.095 136.574 159.081 134.427 159.891C132.299 160.693 132.236 151.695 132.245 151.648C132.485 150.464 138.838 147.095 138.838 147.095Z" fill="#1A1A1A"/>
<path d="M134.173 160.261L153.68 110.567L194.815 112.691C194.815 112.691 179.246 151.596 175.628 160.262H134.173V160.261Z" fill="#5B74C7"/>
<path d="M132.252 152.584C132.252 152.584 165.541 139.629 165.329 133.895C165.25 131.773 167.661 131.559 167.661 129.86C167.661 128.161 166.389 127.736 167.449 126.25C168.682 124.522 168.51 123.489 167.237 123.064C165.965 122.639 164.269 123.914 163.845 123.489C162.764 122.406 161.724 121.365 160.028 122.214C158.464 122.998 148.578 127.736 147.306 127.311L149.448 121.537C148.36 122.019 145.371 124.738 144.338 126.462C143.551 127.775 141.793 130.285 140.521 131.134C139.249 131.984 133.948 134.32 133.948 134.32C133.948 134.32 131.403 137.718 132.252 152.584Z" fill="#E9866B"/>
<path d="M92.087 136.144C90.3832 136.046 88.6843 135.93 87.0077 135.791C86.5408 135.752 86.1937 135.342 86.2324 134.874C86.2713 134.407 86.6885 134.046 87.1477 134.098C96.9868 134.913 107.638 134.939 115.416 134.957C116.789 134.96 123.263 134.963 124.432 134.97C124.894 134.964 125.277 135.356 125.275 135.825C125.272 136.293 124.89 136.672 124.421 136.669C123.254 136.662 116.782 136.659 115.412 136.656C108.927 136.641 100.45 136.621 92.087 136.144Z" fill="#E2E2E2"/>
<path d="M101.597 136.436C101.52 136.436 101.441 136.425 101.363 136.403C100.913 136.274 100.652 135.803 100.781 135.352C101.566 132.603 104.358 126.654 106.601 121.874C107.706 119.52 108.66 117.487 109.207 116.2C109.391 115.769 109.888 115.567 110.32 115.752C110.751 115.935 110.951 116.434 110.768 116.866C110.209 118.181 109.248 120.228 108.136 122.597C105.919 127.322 103.159 133.202 102.412 135.82C102.306 136.192 101.966 136.436 101.597 136.436Z" fill="#E2E2E2"/>
<path d="M127.952 64.6912C130.174 67.3118 135.45 72.4938 137.129 74.4816C139.461 77.2424 146.416 91.0509 146.416 91.0509L147.519 76.393L147.595 74.9446L147.875 69.7458L148.117 65.2053L147.943 64.8189L146.102 60.7285L140.734 48.7847L137.82 47.6633L134.585 47.2981C134.584 47.2978 133.007 59.1185 127.952 64.6912Z" fill="#E9866B"/>
<path d="M148.154 64.2878C148.133 65.4048 147.9 68.731 147.769 70.7784C136.281 67.423 137.025 51.7014 137.025 51.7014L147.056 57.8704C147.056 58.4481 147.95 63.7357 148.154 64.2878Z" fill="#1A1A1A"/>
<path d="M109.682 111.388C109.695 111.621 109.521 111.825 109.288 111.842H109.258C109.037 111.842 108.851 111.672 108.834 111.447C107.948 98.5686 103.597 92.3802 100.107 89.4579C97.3204 87.1302 94.6742 86.5611 93.8134 86.6461C94.14 86.3826 94.475 86.1235 94.8312 85.8645C96.2688 86.1066 98.4316 86.9476 100.649 88.8037C104.267 91.8363 108.774 98.2119 109.682 111.388Z" fill="#E2E2E2"/>
<path d="M166.246 108.58C166.284 108.741 166.496 108.949 166.657 108.949C166.763 108.949 166.861 108.894 166.928 108.817C167.056 108.682 167.128 108.473 167.196 108.299C169.087 103.58 173.154 92.7578 173.73 87.4527C173.463 87.185 173.188 86.9217 172.908 86.6626C172.615 90.634 169.689 99.7829 166.411 107.985C166.343 108.155 166.203 108.389 166.246 108.58Z" fill="#E2E2E2"/>
<path d="M137.753 63.2507C137.753 63.2507 139.937 73.4064 147.595 74.944L147.875 69.7451L144.215 65.5146L137.753 63.2507Z" fill="#1A1A1A"/>
<path d="M161.682 24.8684C159.263 23.4109 155.029 20.6183 147.162 20.0041C144.754 19.8161 142.64 20.3517 140.864 21.1833C140.871 21.1148 140.878 21.0457 140.871 20.9702C140.652 18.5201 140.48 15.7559 137.614 15.1083C135.388 14.6053 133.58 15.9162 132.581 17.7552C128.8 16.8377 124.753 18.6719 123.714 22.6991C122.676 26.7256 125.619 30.7719 129.819 30.7969C129.984 30.7979 130.123 30.7591 130.242 30.6978C130.288 30.6941 130.332 30.6843 130.376 30.6727C129.119 33.7849 131.794 43.9852 131.794 43.9852L142.966 49.9871C142.966 49.9871 162.554 49.2457 164.781 40.1272C167.374 29.5096 164.351 26.4756 161.682 24.8684Z" fill="#80282C"/>
<path d="M137.613 21.8106C134.558 23.6812 130.515 26.5041 129.507 30.15C129.207 31.238 130.854 31.8456 131.165 30.7501C132.066 27.5793 135.679 24.9931 138.318 23.2688C139.169 22.7124 138.513 21.2595 137.613 21.8106Z" fill="#3B1713"/>
<path d="M162.607 51.9654C162.115 54.5497 161.495 57.183 161.29 59.8113C160.965 63.9828 158.315 74.3938 145.544 70.7061C135.021 67.6679 133.422 52.9721 133.422 52.9721C133.422 52.9721 126.198 50.0764 129.089 42.841C131.98 35.6057 136.457 43.8826 136.457 43.8826C136.457 43.8826 137.734 48.4124 137.807 47.4854C137.879 46.5584 139.129 42.4591 140.626 41.177C142.122 39.8949 144.472 39.612 144.616 37.7581C144.761 35.9041 142.237 32.4427 142.345 31.0522C142.453 29.6617 144.34 29.3428 145.302 28.9515C146.263 28.5603 150.245 32.8113 156.723 34.7398C158.492 35.2662 160.38 35.7933 162.226 35.5593C164.128 35.318 165.575 34.2118 165.736 34.0505C165.796 34.3947 165.411 37.1596 165.247 38.1247C164.987 39.6521 164.703 41.1756 164.415 42.6978C164.109 44.3082 163.796 45.9173 163.48 47.5257C163.237 48.7596 162.992 49.9929 162.75 51.2269C162.702 51.4729 162.654 51.7191 162.607 51.9654Z" fill="#E9866B"/>
<path d="M148.707 44.9188C148.473 44.663 148.191 44.5161 147.87 44.5377C147.833 44.5346 147.797 44.533 147.762 44.5328C147.749 44.531 147.736 44.5263 147.722 44.5272C147.709 44.5278 147.699 44.5328 147.685 44.5338C146.578 44.5915 146.207 46.0868 146.698 46.9535C146.756 47.1595 146.854 47.3473 147.029 47.4724C147.201 47.5961 147.416 47.6548 147.631 47.6547C147.649 47.6642 147.664 47.6753 147.687 47.6808C148.197 47.8031 148.568 47.5255 148.785 47.0946C149.283 46.5034 149.257 45.52 148.707 44.9188Z" fill="#1A1A1A"/>
<path d="M156.314 54.3034C156.304 53.9245 155.973 53.6035 155.592 53.6169C155.217 53.63 154.842 53.6432 154.467 53.6563C154.087 53.6696 153.772 53.996 153.782 54.379C153.791 54.7578 154.122 55.0788 154.503 55.0655C154.878 55.0523 155.253 55.0393 155.628 55.0261C156.008 55.0128 156.323 54.6863 156.314 54.3034Z" fill="#D97559"/>
<path d="M144.987 42.3141C145.038 42.2758 145.09 42.237 145.142 42.1998C145.145 42.198 145.147 42.1956 145.151 42.1939C145.15 42.1945 145.149 42.1948 145.148 42.1953C145.346 42.055 145.548 41.9204 145.759 41.7984C145.975 41.6734 146.182 41.5562 146.386 41.4371C146.774 41.2345 147.236 41.0014 147.776 40.7397C148.663 40.3101 149.621 40.0762 150.528 39.6964C151.364 39.3465 151.961 40.6226 151.126 40.9721C150.219 41.3519 149.263 41.5893 148.375 42.0154C147.473 42.4478 146.631 42.9998 145.75 43.4695C145.012 43.8626 144.456 42.8157 144.987 42.3141ZM159.98 64.9452C160.16 63.9391 160.015 62.8872 159.96 61.8939C159.878 60.3948 160.009 58.5248 158.857 57.4397C155.413 56.8056 149.757 56.1552 148.727 56.7326C147.266 57.5512 143.414 65.1778 142.488 65.1055C141.563 65.0333 140.283 63.5344 138.684 60.1453C137.086 56.7562 138.559 43.8142 138.595 43.3507L136.816 42.2792C136.816 42.2792 134.703 57.9475 137.257 63.5312C139.81 69.115 146.857 74.773 154.218 71.1192C155.962 70.2534 157.49 68.9957 158.68 67.4529C159.241 66.7254 159.769 65.9779 159.957 65.0637C159.965 65.0243 159.973 64.9847 159.98 64.9452Z" fill="#80282C"/>
<path d="M157.108 59.4216C157.108 59.4216 149.74 57.5827 149.751 58.0475C149.761 58.5122 150.798 62.6146 152.245 62.3699C154.133 62.0509 157.108 59.4216 157.108 59.4216Z" fill="white"/>
<path d="M163.403 47.4245C163.047 46.812 162.246 46.6227 161.661 47.028C161.609 47.064 161.562 47.106 161.518 47.1514C161.367 47.2932 161.269 47.4848 161.251 47.7049C161.248 47.7304 161.247 47.7559 161.246 47.7815C161.247 47.7894 161.245 47.7967 161.245 47.8048C161.258 48.1925 161.281 48.5869 161.472 48.9348C161.841 49.6054 162.734 49.6051 163.239 49.0996C163.678 48.6599 163.706 47.9474 163.403 47.4245Z" fill="#1A1A1A"/>
<path d="M165.027 45.0311C164.646 44.2368 164.04 43.8 163.321 43.3346C162.565 42.8458 161.715 43.9699 162.478 44.4638C162.954 44.7719 163.47 45.037 163.726 45.5685C164.117 46.3836 165.42 45.8494 165.027 45.0311Z" fill="#80282C"/>
<path d="M163.858 116.939C164.282 116.939 181.669 118.213 181.669 117.788C181.669 117.788 183.013 113.745 183.344 112.101C183.433 111.68 183.45 111.417 183.365 111.417C182.941 111.417 166.826 109.718 165.978 110.568C165.859 110.687 165.719 110.903 165.575 111.184C164.689 112.874 163.493 116.939 163.858 116.939ZM179.315 115.074C180.46 115.074 180.46 116.854 179.315 116.854C178.174 116.854 178.17 115.074 179.315 115.074ZM167.127 114.403C168.268 114.403 168.272 116.183 167.127 116.183C165.982 116.183 165.982 114.403 167.127 114.403Z" fill="#3D57A1"/>
<path d="M129.246 45.922C129.526 49.4691 131.942 52.6938 135.472 52.5679C139.001 52.442 141.65 49.5807 141.697 45.6508C141.743 41.7209 138.556 38.6655 135.026 38.7914C131.497 38.9172 128.937 42.004 129.246 45.922Z" fill="#778B9C"/>
<path d="M135.338 39.3378C135.338 39.3378 132.108 27.5335 137.563 23.2344C137.563 23.2344 135.004 23.6179 133 26.2936C130.997 28.9694 130.716 37.1203 132.025 40.0685C133.334 43.0168 135.338 39.3378 135.338 39.3378Z" fill="#778B9C"/>
<path d="M134.488 51.3964C139.074 50.5532 138.241 42.1942 134.159 40.8655C133.425 40.6264 133.626 39.4297 134.391 39.6586C139.679 41.2407 140.947 51.9561 134.106 52.0167C133.301 52.0241 133.725 51.5369 134.488 51.3964Z" fill="#ECE1D7"/>
</svg>
