<svg width="268" height="273" viewBox="0 0 268 273" fill="none" xmlns="http://www.w3.org/2000/svg">
<path d="M126.518 32.2299C125.277 32.2314 124.084 31.7548 123.185 30.8991L97.3527 5.95815L99.134 4.11364L124.959 29.046C125.381 29.4449 125.941 29.6664 126.522 29.6649C127.103 29.6635 127.661 29.4392 128.082 29.0384L154.336 4.10595L156.102 5.96584L129.849 30.8982C128.951 31.7535 127.758 32.231 126.518 32.2299Z" fill="#0000CE"/>
<path d="M97.528 44.1146L116.978 23.8603L118.828 25.6364L99.3775 45.8907L97.528 44.1146Z" fill="#0000CE"/>
<path d="M134.216 25.6393L136.053 23.8507L154.224 42.5167L152.386 44.3053L134.216 25.6393Z" fill="#0000CE"/>
<path d="M160.123 50.064H93.5781V0H160.123V50.064ZM96.1423 47.4998H157.559V2.56418H96.1423V47.4998ZM267.819 100.307H219.821V97.7432H265.254V32.8591L252.92 19.8143H202.073V83.3051H199.509V17.2501H254.025L267.819 31.8394V100.307Z" fill="#FF8CAC"/>
<path d="M266.537 35.2976H250.962V18.5321H253.526V32.7334H266.537V35.2976Z" fill="#FF8CAC"/>
<path d="M219.61 42.2705L213.303 35.9618L215.116 34.1489L219.61 38.6448L227.194 31.0616L229.006 32.8754L219.61 42.2705ZM219.61 60.6121L213.303 54.3042L215.116 52.4914L219.61 56.9855L227.194 49.4041L229.006 51.217L219.61 60.6121ZM219.61 79.3118L213.303 73.004L215.116 71.1911L219.61 75.6852L227.194 68.1038L229.006 69.9167L219.61 79.3118ZM235.331 56.0795H255.102V58.6437H235.331V56.0795ZM235.331 40.0884H255.102V42.6526H235.331V40.0884ZM235.331 72.2022H254.865V74.7664H235.331V72.2022Z" fill="#0000CE"/>
<path d="M9.20884 180.085L2.44282 165.025L20.34 167.28L9.20884 180.085ZM6.6532 168.139L9.90544 175.376L15.2535 169.223L6.6532 168.139ZM47.822 27.4487L45.5801 26.2051L49.7195 18.7467L56.5864 22.0955L58.5454 6.09163L70.3766 20.063L68.4201 21.7212L60.3788 12.2234L58.695 25.9769L50.7811 22.1178L47.822 27.4487ZM252.934 258.29C251.568 258.29 250.233 257.885 249.097 257.125C247.961 256.366 247.076 255.287 246.553 254.025C246.03 252.763 245.894 251.374 246.16 250.034C246.427 248.694 247.085 247.463 248.051 246.497C249.017 245.531 250.248 244.873 251.588 244.607C252.928 244.34 254.317 244.477 255.579 245C256.841 245.523 257.92 246.408 258.679 247.544C259.438 248.68 259.843 250.016 259.843 251.382C259.841 253.214 259.112 254.969 257.817 256.264C256.522 257.559 254.766 258.288 252.934 258.29ZM252.934 247.038C252.075 247.039 251.236 247.294 250.521 247.771C249.807 248.248 249.251 248.927 248.922 249.72C248.593 250.514 248.507 251.388 248.675 252.23C248.843 253.073 249.257 253.847 249.864 254.454C250.472 255.061 251.246 255.475 252.088 255.642C252.931 255.81 253.804 255.724 254.598 255.395C255.391 255.066 256.07 254.51 256.547 253.795C257.024 253.081 257.279 252.241 257.279 251.382C257.278 250.231 256.82 249.126 256.005 248.312C255.191 247.498 254.086 247.04 252.934 247.038ZM259.083 220.681C258.743 220.681 258.417 220.546 258.177 220.306C257.936 220.065 257.801 219.739 257.801 219.399V161.656H248.068V218.686C248.068 219.026 247.933 219.352 247.693 219.593C247.452 219.833 247.126 219.968 246.786 219.968C246.446 219.968 246.12 219.833 245.88 219.593C245.639 219.352 245.504 219.026 245.504 218.686V160.374C245.504 160.034 245.639 159.708 245.88 159.468C246.12 159.227 246.446 159.092 246.786 159.092H259.083C259.423 159.092 259.749 159.227 259.99 159.468C260.23 159.708 260.365 160.034 260.365 160.374V219.399C260.365 219.739 260.23 220.065 259.99 220.306C259.749 220.546 259.423 220.681 259.083 220.681Z" fill="#FF8CAC"/>
<path d="M255.926 230.664H249.945C248.767 230.663 247.639 230.195 246.806 229.363C245.974 228.531 245.506 227.402 245.504 226.225V219.594C245.504 219.254 245.639 218.928 245.88 218.687C246.12 218.447 246.446 218.312 246.786 218.312H259.083C259.423 218.312 259.749 218.447 259.99 218.687C260.23 218.928 260.365 219.254 260.365 219.594V226.225C260.364 227.402 259.896 228.53 259.064 229.363C258.231 230.195 257.103 230.663 255.926 230.664ZM248.068 220.876V226.225C248.069 226.722 248.267 227.199 248.619 227.551C248.97 227.902 249.447 228.1 249.945 228.1H255.926C256.423 228.1 256.9 227.902 257.251 227.55C257.603 227.199 257.801 226.722 257.801 226.225V220.876H248.068ZM259.083 161.656H246.786C246.568 161.656 246.353 161.6 246.162 161.494C245.971 161.387 245.81 161.233 245.695 161.047C245.581 160.861 245.515 160.649 245.506 160.43C245.496 160.212 245.543 159.994 245.641 159.799L251.79 147.576C251.897 147.364 252.06 147.186 252.263 147.061C252.465 146.936 252.698 146.87 252.935 146.87C253.173 146.87 253.406 146.936 253.608 147.061C253.81 147.186 253.974 147.364 254.081 147.576L260.229 159.799C260.327 159.994 260.373 160.212 260.364 160.43C260.354 160.649 260.289 160.861 260.174 161.047C260.059 161.233 259.899 161.387 259.708 161.494C259.517 161.6 259.302 161.656 259.083 161.656ZM248.867 159.092H257.004L252.935 151.005L248.867 159.092Z" fill="#FF8CAC"/>
<path d="M252.934 150.962C252.594 150.962 252.268 150.827 252.028 150.586C251.787 150.346 251.652 150.02 251.652 149.68V145.279C251.652 144.939 251.787 144.613 252.028 144.372C252.268 144.132 252.594 143.997 252.934 143.997C253.274 143.997 253.6 144.132 253.841 144.372C254.081 144.613 254.216 144.939 254.216 145.279V149.68C254.216 150.02 254.081 150.346 253.841 150.586C253.6 150.827 253.274 150.962 252.934 150.962Z" fill="#FF8CAC"/>
<path d="M251.653 112.391H254.217V138.702H251.653V112.391Z" fill="#0000CE"/>
<path d="M176.233 101.589V108.502C176.233 110.571 175.411 112.556 173.947 114.02C172.484 115.483 170.499 116.306 168.429 116.306C166.359 116.306 164.374 115.483 162.91 114.02C161.447 112.556 160.625 110.571 160.625 108.502V101.589H90.6114V108.502C90.6114 110.571 89.7892 112.556 88.3257 114.02C86.8621 115.483 84.8771 116.306 82.8074 116.306C80.7376 116.306 78.7526 115.483 77.289 114.02C75.8255 112.556 75.0033 110.571 75.0033 108.502V101.589H42.8954V131.468H211.908V101.589H176.233ZM181.891 189.312C174.064 189.312 166.412 191.633 159.903 195.982C153.395 200.33 148.322 206.512 145.327 213.743C142.331 220.975 141.547 228.933 143.074 236.61C144.601 244.287 148.371 251.339 153.906 256.874C159.44 262.409 166.492 266.179 174.17 267.706C181.847 269.233 189.804 268.449 197.036 265.454C204.268 262.459 210.449 257.386 214.798 250.878C219.147 244.369 221.468 236.718 221.468 228.89C221.469 223.692 220.445 218.546 218.456 213.744C216.467 208.942 213.552 204.579 209.877 200.904C206.202 197.229 201.839 194.313 197.037 192.324C192.235 190.335 187.089 189.312 181.891 189.312ZM181.891 237.146C180.258 237.146 178.662 236.662 177.305 235.754C175.947 234.847 174.889 233.558 174.264 232.049C173.639 230.541 173.475 228.881 173.794 227.279C174.113 225.678 174.899 224.207 176.053 223.052C177.208 221.898 178.679 221.111 180.281 220.793C181.882 220.474 183.542 220.638 185.051 221.263C186.559 221.887 187.848 222.946 188.756 224.303C189.663 225.661 190.147 227.257 190.147 228.89C190.147 229.974 189.933 231.048 189.519 232.049C189.104 233.051 188.495 233.961 187.729 234.728C186.962 235.495 186.052 236.103 185.05 236.518C184.048 236.932 182.975 237.146 181.89 237.146H181.891Z" fill="#FF6C6C"/>
<path d="M178.122 273C169.154 273 160.388 270.341 152.932 265.359C145.475 260.377 139.664 253.296 136.232 245.011C132.8 236.726 131.902 227.61 133.651 218.814C135.401 210.019 139.719 201.94 146.06 195.599C152.401 189.258 160.48 184.939 169.275 183.19C178.07 181.44 187.187 182.338 195.472 185.77C203.757 189.202 210.838 195.013 215.82 202.469C220.802 209.925 223.462 218.692 223.462 227.659C223.448 239.68 218.667 251.205 210.167 259.705C201.667 268.205 190.143 272.986 178.122 273ZM178.122 184.883C169.661 184.883 161.391 187.391 154.356 192.091C147.321 196.792 141.839 203.472 138.601 211.289C135.363 219.105 134.516 227.706 136.166 236.004C137.817 244.302 141.891 251.924 147.873 257.907C153.855 263.889 161.477 267.963 169.775 269.614C178.073 271.264 186.674 270.417 194.491 267.18C202.307 263.942 208.988 258.459 213.688 251.425C218.389 244.39 220.897 236.12 220.897 227.659C220.884 216.318 216.374 205.446 208.355 197.426C200.335 189.407 189.463 184.896 178.122 184.883ZM212.534 185.124H209.97V95.2295H179.814V92.6653H212.534V185.124ZM96.1448 92.6653H157.234V95.2295H96.1448V92.6653Z" fill="#0000CE"/>
<path d="M137.457 262.413H35.2576V92.6653H70.9895V95.2295H37.8218V259.849H137.457V262.413Z" fill="#0000CE"/>
<path d="M83.2856 118.449C81.0178 118.446 78.8436 117.544 77.24 115.941C75.6363 114.337 74.7342 112.163 74.7315 109.895V80.3213C74.7315 78.0526 75.6328 75.8769 77.237 74.2727C78.8412 72.6684 81.0169 71.7672 83.2856 71.7672C85.5543 71.7672 87.7301 72.6684 89.3343 74.2727C90.9385 75.8769 91.8398 78.0526 91.8398 80.3213V109.895C91.8373 112.163 90.9353 114.337 89.3316 115.941C87.728 117.545 85.5536 118.447 83.2856 118.45V118.449ZM83.2856 74.3305C81.6973 74.3326 80.1747 74.9645 79.0518 76.0878C77.9288 77.2111 77.2973 78.7339 77.2957 80.3222V109.895C77.2957 111.484 77.9268 113.007 79.0501 114.13C80.1734 115.254 81.697 115.885 83.2856 115.885C84.8743 115.885 86.3978 115.254 87.5212 114.13C88.6445 113.007 89.2756 111.484 89.2756 109.895V80.3213C89.274 78.7331 88.6424 77.2104 87.5195 76.0873C86.3965 74.9641 84.8739 74.3323 83.2856 74.3305ZM168.587 118.449C166.319 118.447 164.145 117.545 162.541 115.941C160.937 114.337 160.035 112.163 160.032 109.895V80.3213C160.032 78.0525 160.934 75.8766 162.538 74.2724C164.142 72.6681 166.318 71.7668 168.587 71.7668C170.856 71.7668 173.032 72.6681 174.636 74.2724C176.24 75.8766 177.142 78.0525 177.142 80.3213V109.895C177.139 112.163 176.237 114.337 174.633 115.941C173.03 117.545 170.855 118.447 168.587 118.45V118.449ZM168.587 74.3305C166.999 74.3323 165.476 74.9642 164.353 76.0875C163.23 77.2108 162.598 78.7337 162.597 80.3222V109.895C162.597 111.484 163.228 113.007 164.351 114.131C165.475 115.254 166.998 115.885 168.587 115.885C170.176 115.885 171.699 115.254 172.823 114.131C173.946 113.007 174.577 111.484 174.577 109.895V80.3213C174.576 78.7331 173.944 77.2104 172.821 76.0873C171.698 74.9641 170.176 74.3323 168.587 74.3305ZM36.5397 130.188H211.252V132.752H36.5397V130.188ZM177.695 236.295C175.982 236.295 174.308 235.787 172.883 234.835C171.459 233.883 170.349 232.53 169.693 230.947C169.037 229.365 168.866 227.623 169.2 225.943C169.534 224.263 170.359 222.719 171.571 221.508C172.782 220.297 174.325 219.472 176.006 219.137C177.686 218.803 179.427 218.975 181.01 219.63C182.593 220.286 183.946 221.396 184.897 222.821C185.849 224.245 186.357 225.92 186.357 227.633C186.355 229.929 185.441 232.131 183.817 233.755C182.194 235.379 179.992 236.292 177.695 236.295ZM177.695 221.535C176.489 221.535 175.31 221.893 174.308 222.563C173.305 223.233 172.523 224.185 172.062 225.299C171.6 226.413 171.48 227.64 171.715 228.822C171.95 230.005 172.531 231.092 173.384 231.944C174.237 232.797 175.323 233.378 176.506 233.613C177.689 233.848 178.915 233.728 180.029 233.266C181.143 232.805 182.095 232.023 182.765 231.02C183.435 230.018 183.793 228.839 183.793 227.633C183.791 226.016 183.148 224.466 182.005 223.323C180.862 222.18 179.312 221.537 177.695 221.535Z" fill="#0000CE"/>
<path d="M176.413 201.34H178.978V220.253H176.413V201.34ZM185.075 226.351H207.069V228.915H185.075V226.351ZM79.0052 173.439H56.7678V151.201H79.0052V173.439ZM59.3319 170.875H76.441V153.766H59.3319V170.875ZM116.157 173.439H93.921V151.201H116.158L116.157 173.439ZM96.4844 170.875H113.593V153.766H96.4852L96.4844 170.875ZM79.0052 205.947H56.7678V183.709H79.0052V205.947ZM59.3319 203.382H76.441V186.273H59.3319V203.382ZM116.157 205.947H93.921V183.709H116.158L116.157 205.947ZM96.4844 203.382H113.593V186.273H96.4852L96.4844 203.382ZM79.0052 240.777H56.7678V218.539H79.0052V240.777ZM59.3319 238.213H76.441V221.104H59.3319V238.213ZM116.157 240.777H93.921V218.539H116.158L116.157 240.777ZM96.4844 238.213H113.593V221.104H96.4852L96.4844 238.213Z" fill="#0000CE"/>
<path d="M153.309 173.439H131.073V151.201H153.309V173.439ZM133.637 170.875H150.745V153.766H133.637V170.875ZM190.461 173.439H168.223V151.201H190.461V173.439ZM170.787 170.875H187.897V153.766H170.787V170.875Z" fill="#FF8CAC"/>
<path d="M210.162 225.559C210.113 224.786 210.035 224.015 209.929 223.247L212.47 222.897C212.584 223.721 212.667 224.561 212.721 225.396L210.162 225.559ZM209.314 220.018C209.056 218.954 208.742 217.904 208.373 216.873L210.789 216.012C211.187 217.127 211.526 218.263 211.806 219.414L209.314 220.018ZM207.112 213.841C206.64 212.852 206.118 211.889 205.548 210.954L207.736 209.618C208.352 210.628 208.916 211.668 209.425 212.736L207.112 213.841ZM203.694 208.24C203.031 207.367 202.324 206.53 201.575 205.729L203.447 203.978C204.256 204.842 205.02 205.747 205.736 206.689L203.694 208.24ZM199.209 203.447C198.382 202.727 197.52 202.05 196.625 201.416L198.105 199.322C199.071 200.006 200.002 200.737 200.894 201.514L199.209 203.447ZM193.849 199.659C192.894 199.122 191.912 198.634 190.907 198.198L191.929 195.845C193.015 196.317 194.076 196.845 195.107 197.426L193.849 199.659ZM187.831 197.044C186.786 196.713 185.724 196.437 184.651 196.215L185.169 193.703C186.328 193.943 187.475 194.242 188.603 194.599L187.831 197.044ZM181.404 195.717C180.313 195.607 179.218 195.551 178.122 195.551V192.987C179.305 192.987 180.488 193.047 181.665 193.167L181.404 195.717Z" fill="#0000CE"/>
<path d="M53.782 80.8802H4.6651C3.42826 80.8789 2.24246 80.3869 1.36788 79.5123C0.493295 78.6377 0.00135743 77.4519 0 76.2151V36.6276C0.00135743 35.3907 0.493295 34.2049 1.36788 33.3303C2.24246 32.4557 3.42826 31.9638 4.6651 31.9624H21.7015C22.6116 31.9625 23.5017 32.2288 24.2623 32.7284C25.0228 33.2281 25.6206 33.9393 25.982 34.7745L28.5342 40.667C28.697 41.0431 28.9664 41.3634 29.309 41.5884C29.6516 41.8133 30.0526 41.933 30.4625 41.9328H53.782C55.0189 41.9342 56.2047 42.4261 57.0792 43.3007C57.9538 44.1753 58.4458 45.3611 58.4471 46.5979V76.2151C58.4458 77.4519 57.9538 78.6377 57.0792 79.5123C56.2047 80.3869 55.0189 80.8789 53.782 80.8802ZM4.6651 34.5266C4.10804 34.5271 3.57393 34.7486 3.18003 35.1425C2.78613 35.5364 2.56463 36.0705 2.56418 36.6276V76.216C2.56463 76.773 2.78613 77.3071 3.18003 77.701C3.57393 78.0949 4.10804 78.3164 4.6651 78.3169H53.782C54.3392 78.3164 54.8735 78.0948 55.2674 77.7007C55.6613 77.3066 55.8827 76.7723 55.8829 76.2151V46.5988C55.8827 46.0416 55.6613 45.5073 55.2674 45.1132C54.8735 44.7191 54.3392 44.4975 53.782 44.497H30.4625C29.5522 44.4974 28.6616 44.2314 27.9007 43.7317C27.1397 43.232 26.5417 42.5205 26.1803 41.685L23.6298 35.7933C23.467 35.4171 23.1977 35.0967 22.8551 34.8716C22.5125 34.6465 22.1115 34.5266 21.7015 34.5266H4.6651Z" fill="#FF8CAC"/>
<path d="M44.4563 60.9532H41.0374V58.389H44.4563V60.9532ZM37.6185 60.9532H34.1996V58.389H37.6185V60.9532ZM30.7806 60.9532H27.3617V58.389H30.7806V60.9532ZM23.9428 60.9532H20.5239V58.389H23.9428V60.9532ZM17.105 60.9532H13.6861V58.389H17.105V60.9532Z" fill="#0000CE"/>
</svg>
