<svg width="331" height="294" viewBox="0 0 331 294" fill="none" xmlns="http://www.w3.org/2000/svg">
<path d="M91.6148 290.502C95.0452 290.502 97.826 287.721 97.826 284.29C97.826 280.86 95.0452 278.079 91.6148 278.079C88.1844 278.079 85.4035 280.86 85.4035 284.29C85.4035 287.721 88.1844 290.502 91.6148 290.502Z" fill="#616161" stroke="#616161" stroke-width="1.09" stroke-miterlimit="10"/>
<path d="M324.201 196.722C327.632 196.722 330.412 193.941 330.412 190.51C330.412 187.08 327.632 184.299 324.201 184.299C320.771 184.299 317.99 187.08 317.99 190.51C317.99 193.941 320.771 196.722 324.201 196.722Z" fill="#616161" stroke="#616161" stroke-width="1.09" stroke-miterlimit="10"/>
<path d="M213.73 293.018C213.73 293.018 212.172 275.558 201.342 275.558C191.229 275.558 188.59 293.018 192.831 293.018C197.071 293.018 195.784 282.994 189.609 282.994C183.435 282.994 182.719 293.018 182.719 293.018H138.846M113.433 24.9408C113.433 24.9408 115.179 6.62349 126.351 6.62349C137.523 6.62349 144.09 24.9408 134.45 24.9408C124.81 24.9408 128.184 6.14117 139.849 6.14117C150.744 6.14117 153.586 24.9408 149.016 24.9408C144.446 24.9408 145.836 14.1442 152.488 14.1442C159.14 14.1442 159.908 24.9408 159.908 24.9408H207.18" stroke="#616161" stroke-width="1.962" stroke-linecap="round" stroke-linejoin="round"/>
<path d="M5.67008 47.023C6.46198 47.023 7.10394 46.3811 7.10394 45.5892C7.10394 44.7973 6.46198 44.1553 5.67008 44.1553C4.87817 44.1553 4.2362 44.7973 4.2362 45.5892C4.2362 46.3811 4.87817 47.023 5.67008 47.023Z" fill="#616161" stroke="#616161" stroke-width="1.09" stroke-miterlimit="10"/>
<path d="M5.66993 129.502C8.50006 129.502 10.7943 127.208 10.7943 124.378C10.7943 121.548 8.50006 119.253 5.66993 119.253C2.83981 119.253 0.545535 121.548 0.545535 124.378C0.545535 127.208 2.83981 129.502 5.66993 129.502Z" fill="#616161" stroke="#616161" stroke-width="1.09" stroke-miterlimit="10"/>
<path d="M237.562 18.3805C242.487 18.3805 246.479 14.388 246.479 9.46303C246.479 4.53804 242.487 0.545535 237.562 0.545535C232.637 0.545535 228.644 4.53804 228.644 9.46303C228.644 14.388 232.637 18.3805 237.562 18.3805Z" fill="#616161" stroke="#616161" stroke-width="1.09" stroke-miterlimit="10"/>
<path d="M94.201 49.4259C94.201 49.5328 94.201 49.6441 94.201 49.7511V49.4259ZM289.572 239.694V239.369C289.572 239.478 289.572 239.587 289.572 239.694Z" stroke="#0061FA" stroke-width="0.218" stroke-miterlimit="10"/>
<path d="M269.974 221.881V49.4259H94.2015V239.369C94.2015 249.572 81.2268 257.846 65.2251 257.846H260.598C263.753 257.852 266.899 257.52 269.983 256.855C281.231 254.404 289.358 247.664 289.575 239.694C289.575 239.585 289.575 239.476 289.575 239.369C289.572 231.257 281.375 224.358 269.974 221.881Z" fill="white"/>
<path d="M178.786 101.455C188.236 99.8469 198.271 97.4942 204.757 90.4405C207.208 87.7758 209.055 84.5283 211.894 82.2825C214.733 80.0368 219.164 79.1136 221.846 81.5449C224.286 83.7579 224.183 87.5553 223.891 90.8356C223.11 99.6207 222.328 108.406 221.545 117.191M92.8828 147.616C104.668 146.715 116.17 142.619 125.986 136.036M158.173 51.0124C153.321 54.3275 151.765 61.032 152.896 66.8002C154.026 72.5684 157.328 77.6405 160.561 82.5488M120.565 103.701C114.122 95.362 104.033 89.9517 93.5223 89.1834M175.327 177.256C174.29 175.96 172.197 176.069 170.794 176.953C169.391 177.837 168.455 179.277 167.374 180.536C165.231 183.033 162.446 184.88 159.701 186.691L148.882 193.83C144.965 196.414 141.01 199.018 136.637 200.715C132.726 202.232 128.507 203.016 124.867 205.098C121.964 206.759 119.574 209.164 116.962 211.25C107.795 218.583 95.517 221.911 83.8911 220.227M184.69 220.076C178.424 219.308 171.813 218.581 166.006 221.023C162.352 222.551 159.297 225.24 156.575 228.118C149.426 235.712 144.158 244.877 141.196 254.877M243.201 195.53C246.537 193.012 250.681 191.806 254.847 192.141C262.54 192.795 268.854 198.52 276.311 200.517" stroke="#616161" stroke-width="1.09" stroke-linecap="round" stroke-linejoin="round"/>
<path d="M254.854 230.292L257.398 226.226L259.808 230.292" stroke="#616161" stroke-width="1.09" stroke-linecap="round" stroke-linejoin="round"/>
<path d="M254.854 237.736L257.398 233.671L259.808 237.736" stroke="#616161" stroke-width="1.09" stroke-linecap="round" stroke-linejoin="round"/>
<path d="M261.285 234.057L263.832 229.989L266.242 234.057" stroke="#616161" stroke-width="1.09" stroke-linecap="round" stroke-linejoin="round"/>
<path d="M248.064 234.057L250.609 229.989L253.018 234.057" stroke="#616161" stroke-width="1.09" stroke-linecap="round" stroke-linejoin="round"/>
<path d="M190.687 67.7998L193.232 63.7339L195.641 67.7998" stroke="#616161" stroke-width="1.09" stroke-linecap="round" stroke-linejoin="round"/>
<path d="M197.94 67.7998L200.487 63.7339L202.896 67.7998" stroke="#616161" stroke-width="1.09" stroke-linecap="round" stroke-linejoin="round"/>
<path d="M197.94 60.266L200.487 56.2001L202.896 60.266" stroke="#616161" stroke-width="1.09" stroke-linecap="round" stroke-linejoin="round"/>
<path d="M197.94 75.3359L200.487 71.2678L202.896 75.3359" stroke="#616161" stroke-width="1.09" stroke-linecap="round" stroke-linejoin="round"/>
<path d="M205.128 67.7998L207.675 63.7339L210.085 67.7998" stroke="#616161" stroke-width="1.09" stroke-linecap="round" stroke-linejoin="round"/>
<path d="M108.723 155.657L111.268 151.591L113.677 155.657" stroke="#616161" stroke-width="1.09" stroke-linecap="round" stroke-linejoin="round"/>
<path d="M115.975 155.657L118.522 151.591L120.932 155.657" stroke="#616161" stroke-width="1.09" stroke-linecap="round" stroke-linejoin="round"/>
<path d="M115.975 148.123L118.522 144.055L120.932 148.123" stroke="#616161" stroke-width="1.09" stroke-linecap="round" stroke-linejoin="round"/>
<path d="M123.165 155.657L125.712 151.591L128.121 155.657" stroke="#616161" stroke-width="1.09" stroke-linecap="round" stroke-linejoin="round"/>
<path d="M149.413 249.338L151.958 245.273L154.367 249.338" stroke="#616161" stroke-width="1.09" stroke-linecap="round" stroke-linejoin="round"/>
<path d="M156.665 249.338L159.212 245.273L161.622 249.338" stroke="#616161" stroke-width="1.09" stroke-linecap="round" stroke-linejoin="round"/>
<path d="M156.665 241.805L159.212 237.736L161.622 241.805" stroke="#616161" stroke-width="1.09" stroke-linecap="round" stroke-linejoin="round"/>
<path d="M163.854 249.338L166.399 245.273L168.811 249.338" stroke="#616161" stroke-width="1.09" stroke-linecap="round" stroke-linejoin="round"/>
<path d="M221.824 244.522C222.896 248.917 224.847 253.049 227.56 256.669M167.309 205.414C167.309 206.132 166.466 206.724 165.425 206.724C165.011 206.745 164.601 206.628 164.261 206.391C163.92 206.154 163.668 205.811 163.544 205.414C163.311 204.67 162.702 204.105 161.661 204.105C160.62 204.105 160.059 204.744 159.779 205.414C159.485 206.113 158.937 206.724 157.896 206.724C157.482 206.745 157.072 206.628 156.731 206.391C156.391 206.154 156.139 205.811 156.015 205.414C155.783 204.67 155.172 204.105 154.131 204.105C153.09 204.105 152.529 204.744 152.25 205.414C151.955 206.113 151.407 206.724 150.366 206.724C149.952 206.745 149.542 206.628 149.202 206.391C148.861 206.154 148.609 205.811 148.485 205.414M129.696 61.5473C129.696 62.2653 128.854 62.8568 127.815 62.8568C127.4 62.8782 126.99 62.7612 126.649 62.5242C126.309 62.2872 126.056 61.9435 125.932 61.5473C125.7 60.8053 125.089 60.2378 124.05 60.2378C123.012 60.2378 122.446 60.8926 122.163 61.5473C121.868 62.2457 121.32 62.8568 120.281 62.8568C119.867 62.8778 119.457 62.7607 119.116 62.5237C118.775 62.2867 118.523 61.9433 118.398 61.5473C118.167 60.8053 117.555 60.2378 116.517 60.2378C115.478 60.2378 114.913 60.8773 114.633 61.5473C114.339 62.2457 113.791 62.8568 112.752 62.8568C112.337 62.8778 111.927 62.7607 111.587 62.5237C111.246 62.2867 110.993 61.9433 110.868 61.5473M120.286 81.3727C120.286 82.0907 119.443 82.6822 118.402 82.6822C117.988 82.7035 117.578 82.5864 117.238 82.3494C116.897 82.1123 116.645 81.7687 116.521 81.3727C116.29 80.6307 115.679 80.0632 114.638 80.0632C113.597 80.0632 113.036 80.7005 112.756 81.3727C112.462 82.0711 111.914 82.6822 110.873 82.6822C110.458 82.7035 110.049 82.5864 109.708 82.3494C109.368 82.1123 109.115 81.7687 108.992 81.3727C108.76 80.6307 108.149 80.0632 107.108 80.0632C106.067 80.0632 105.506 80.7005 105.227 81.3727C104.932 82.0711 104.384 82.6822 103.346 82.6822C102.931 82.704 102.521 82.5872 102.18 82.3501C101.838 82.113 101.586 81.7691 101.462 81.3727M150.456 223.874C150.225 223.129 149.614 222.564 148.575 222.564C147.536 222.564 146.971 223.204 146.691 223.874C146.397 224.572 145.849 225.183 144.81 225.183C144.395 225.204 143.985 225.087 143.645 224.85C143.304 224.613 143.051 224.27 142.926 223.874C142.695 223.129 142.084 222.564 141.045 222.564C140.006 222.564 139.441 223.204 139.162 223.874M132.983 215.919C132.983 216.639 132.141 217.228 131.102 217.228C130.687 217.25 130.277 217.133 129.936 216.896C129.595 216.658 129.343 216.315 129.219 215.919C128.987 215.177 128.376 214.609 127.337 214.609C126.298 214.609 125.733 215.249 125.454 215.919C125.159 216.617 124.611 217.228 123.573 217.228C123.158 217.25 122.748 217.133 122.407 216.896C122.066 216.658 121.813 216.315 121.689 215.919M145.528 73.302C145.528 74.02 144.686 74.6114 143.647 74.6114C143.232 74.6329 142.822 74.5159 142.481 74.2789C142.14 74.0418 141.888 73.6982 141.763 73.302C141.532 72.5599 140.921 71.9925 139.882 71.9925C138.843 71.9925 138.278 72.632 137.999 73.302C137.704 74.0004 137.156 74.6114 136.117 74.6114C135.703 74.6325 135.293 74.5154 134.952 74.2784C134.611 74.0414 134.358 73.698 134.234 73.302M132.983 248.607C132.983 249.325 132.141 249.917 131.102 249.917C130.687 249.938 130.277 249.821 129.936 249.584C129.595 249.347 129.343 249.004 129.219 248.607C128.987 247.865 128.376 247.298 127.337 247.298C126.298 247.298 125.733 247.937 125.454 248.607C125.159 249.306 124.611 249.917 123.573 249.917C123.158 249.938 122.748 249.821 122.407 249.584C122.066 249.347 121.813 249.004 121.689 248.607M124.05 235.253C124.05 235.971 123.208 236.562 122.167 236.562C121.753 236.584 121.343 236.467 121.002 236.23C120.662 235.993 120.41 235.649 120.286 235.253C120.052 234.511 119.443 233.943 118.402 233.943C117.361 233.943 116.8 234.583 116.521 235.253C116.226 235.951 115.679 236.562 114.638 236.562C114.223 236.584 113.813 236.467 113.473 236.23C113.132 235.993 112.88 235.649 112.756 235.253C112.523 234.511 111.914 233.943 110.873 233.943C109.832 233.943 109.271 234.583 108.992 235.253C108.697 235.951 108.149 236.562 107.108 236.562C106.694 236.584 106.284 236.467 105.943 236.23C105.603 235.993 105.351 235.649 105.227 235.253" stroke="#616161" stroke-width="1.09" stroke-linecap="round" stroke-linejoin="round"/>
<path d="M122.818 183.476V197.333" stroke="#616161" stroke-width="1.09" stroke-linecap="round" stroke-linejoin="round"/>
<path d="M127.213 193.164L122.818 188.769L118.422 193.164" stroke="#616161" stroke-width="1.09" stroke-linecap="round" stroke-linejoin="round"/>
<path d="M126.508 189.576L122.817 185.888L119.127 189.576" stroke="#616161" stroke-width="1.09" stroke-linecap="round" stroke-linejoin="round"/>
<path d="M125.349 186.008L122.818 183.476L120.286 186.008" stroke="#616161" stroke-width="1.09" stroke-linecap="round" stroke-linejoin="round"/>
<path d="M108.998 177.04V190.897" stroke="#616161" stroke-width="1.09" stroke-linecap="round" stroke-linejoin="round"/>
<path d="M113.396 186.728L108.998 182.331L104.603 186.728" stroke="#616161" stroke-width="1.09" stroke-linecap="round" stroke-linejoin="round"/>
<path d="M112.689 183.14L108.998 179.45L105.308 183.14" stroke="#616161" stroke-width="1.09" stroke-linecap="round" stroke-linejoin="round"/>
<path d="M111.53 179.572L108.998 177.04L106.467 179.572" stroke="#616161" stroke-width="1.09" stroke-linecap="round" stroke-linejoin="round"/>
<path d="M249.085 135.545V149.402" stroke="#616161" stroke-width="1.09" stroke-linecap="round" stroke-linejoin="round"/>
<path d="M253.481 145.231L249.085 140.836L244.69 145.231" stroke="#616161" stroke-width="1.09" stroke-linecap="round" stroke-linejoin="round"/>
<path d="M252.774 141.645L249.085 137.955L245.395 141.645" stroke="#616161" stroke-width="1.09" stroke-linecap="round" stroke-linejoin="round"/>
<path d="M251.617 138.077L249.085 135.545L246.554 138.077" stroke="#616161" stroke-width="1.09" stroke-linecap="round" stroke-linejoin="round"/>
<path d="M235.266 129.107V142.964" stroke="#616161" stroke-width="1.09" stroke-linecap="round" stroke-linejoin="round"/>
<path d="M239.662 138.795L235.266 134.399L230.871 138.795" stroke="#616161" stroke-width="1.09" stroke-linecap="round" stroke-linejoin="round"/>
<path d="M238.954 135.207L235.266 131.519L231.576 135.207" stroke="#616161" stroke-width="1.09" stroke-linecap="round" stroke-linejoin="round"/>
<path d="M237.798 131.639L235.266 129.107L232.735 131.639" stroke="#616161" stroke-width="1.09" stroke-linecap="round" stroke-linejoin="round"/>
<path d="M237.562 94.3472V108.204" stroke="#616161" stroke-width="1.09" stroke-linecap="round" stroke-linejoin="round"/>
<path d="M241.958 104.035L237.562 99.6397L233.167 104.035" stroke="#616161" stroke-width="1.09" stroke-linecap="round" stroke-linejoin="round"/>
<path d="M241.25 100.449L237.562 96.7588L233.872 100.449" stroke="#616161" stroke-width="1.09" stroke-linecap="round" stroke-linejoin="round"/>
<path d="M240.094 96.8788L237.562 94.3472L235.031 96.8788" stroke="#616161" stroke-width="1.09" stroke-linecap="round" stroke-linejoin="round"/>
<path d="M245.864 80.1068V93.9632" stroke="#616161" stroke-width="1.09" stroke-linecap="round" stroke-linejoin="round"/>
<path d="M250.262 89.7946L245.864 85.3969L241.469 89.7946" stroke="#616161" stroke-width="1.09" stroke-linecap="round" stroke-linejoin="round"/>
<path d="M249.555 86.2068L245.864 82.5163L242.174 86.2068" stroke="#616161" stroke-width="1.09" stroke-linecap="round" stroke-linejoin="round"/>
<path d="M248.398 82.6385L245.864 80.1068L243.332 82.6385" stroke="#616161" stroke-width="1.09" stroke-linecap="round" stroke-linejoin="round"/>
<path d="M299.118 104.653C299.205 104.653 299.288 104.618 299.349 104.557C299.411 104.495 299.445 104.412 299.445 104.325C299.445 104.238 299.411 104.155 299.349 104.094C299.288 104.032 299.205 103.998 299.118 103.998C299.031 103.998 298.948 104.032 298.887 104.094C298.825 104.155 298.791 104.238 298.791 104.325C298.791 104.412 298.825 104.495 298.887 104.557C298.948 104.618 299.031 104.653 299.118 104.653Z" fill="#FFFBF8"/>
<path d="M234.954 243.537C234.954 243.537 223.114 248.524 210.074 249.882C197.034 251.239 182.641 249.26 182.641 249.26L197.918 230.054L231.6 237.51L234.954 243.537Z" fill="#FD8571"/>
<path d="M234.954 243.537C234.954 243.537 231.681 231.159 234.051 220.892C236.421 210.626 241.94 200.798 244.208 193.343C246.475 185.888 247.263 176.058 246.478 169.168C245.692 162.278 237.892 160.244 237.892 160.244C237.892 160.244 239.247 154.934 235.406 150.528C231.565 146.122 227.047 148.607 227.047 148.607C227.047 148.607 228.064 143.524 223.883 139.91C219.701 136.296 214.734 139.91 214.734 139.91C214.734 139.91 214.734 134.714 209.989 132.342C205.245 129.969 198.579 135.654 198.579 135.654C198.579 135.654 195.524 132.992 191.462 137.241C187.401 141.49 176.777 151.427 174.518 162.503C172.259 173.579 173.501 188.147 177.399 203.734C181.296 219.321 182.538 242.256 182.652 249.26C182.652 249.26 194.376 243.625 208.056 241.774C223.429 239.694 234.954 243.537 234.954 243.537Z" fill="#FEB0A3"/>
<path d="M269.974 31.938V221.881C281.375 224.367 289.572 231.266 289.572 239.369V49.426C289.572 41.3138 281.375 34.4238 269.974 31.938Z" fill="#FBD0D0"/>
<path d="M237.562 162.887L234.123 172.13M225.947 150.842C224.746 154.718 223.123 158.451 221.106 161.973M214.031 141.885C212.134 145.729 210.511 148.127 208.357 151.545" stroke="#616161" stroke-width="1.09" stroke-linecap="round" stroke-linejoin="round"/>
<path d="M189.478 149.788L176.537 137.241L168.811 144.967L184.47 161.117C185.845 157.217 187.519 153.429 189.478 149.788Z" fill="#0043AE"/>
<path d="M197.94 136.678C191.576 145.163 184.686 156.403 181.744 171.041" stroke="#616161" stroke-width="1.09" stroke-linecap="round" stroke-linejoin="round"/>
<path d="M190.993 142.516C192.44 141.551 193.455 140.061 194.435 138.607C194.852 137.99 195.286 137.311 195.253 136.56C195.209 136.007 194.965 135.49 194.566 135.104C193.638 135.423 192.602 136.069 191.462 137.248C190.179 138.59 188.241 140.5 186.12 142.835C187.556 143.795 189.55 143.472 190.993 142.516Z" fill="#616161"/>
<path d="M149.577 131.634C152.01 131.634 153.983 131.255 153.983 130.788C153.983 130.32 152.01 129.941 149.577 129.941C147.143 129.941 145.17 130.32 145.17 130.788C145.17 131.255 147.143 131.634 149.577 131.634Z" fill="#383838"/>
<path d="M149.577 130.788C149.577 130.788 138.845 119.943 138.845 110.794C138.845 107.948 139.976 105.219 141.988 103.206C144.001 101.194 146.73 100.063 149.577 100.063C152.423 100.063 155.152 101.194 157.165 103.206C159.177 105.219 160.308 107.948 160.308 110.794C160.308 119.83 149.577 130.788 149.577 130.788ZM153.983 110.794C153.983 109.923 153.725 109.07 153.241 108.346C152.757 107.621 152.069 107.056 151.264 106.722C150.459 106.388 149.573 106.3 148.718 106.47C147.863 106.64 147.078 107.059 146.462 107.675C145.845 108.292 145.425 109.077 145.255 109.932C145.085 110.786 145.172 111.672 145.505 112.478C145.839 113.283 146.404 113.971 147.128 114.456C147.853 114.94 148.705 115.198 149.577 115.198C150.745 115.198 151.865 114.734 152.692 113.909C153.518 113.083 153.982 111.962 153.983 110.794Z" fill="#FF2B4A"/>
<path d="M259.683 88.686V102.542" stroke="#616161" stroke-width="1.09" stroke-linecap="round" stroke-linejoin="round"/>
<path d="M264.081 98.3738L259.684 93.9762L255.288 98.3738" stroke="#616161" stroke-width="1.09" stroke-linecap="round" stroke-linejoin="round"/>
<path d="M263.374 94.786L259.684 91.0955L255.993 94.786" stroke="#616161" stroke-width="1.09" stroke-linecap="round" stroke-linejoin="round"/>
<path d="M262.217 91.2177L259.683 88.686L257.152 91.2177" stroke="#616161" stroke-width="1.09" stroke-linecap="round" stroke-linejoin="round"/>
<path d="M150.456 144.317C144.826 144.317 139.322 142.647 134.64 139.519C129.959 136.391 126.31 131.945 124.155 126.743C122.001 121.541 121.437 115.817 122.535 110.295C123.634 104.773 126.345 99.7003 130.326 95.719C134.308 91.7376 139.38 89.0263 144.902 87.9279C150.425 86.8295 156.149 87.3932 161.35 89.5479C166.552 91.7025 170.998 95.3514 174.126 100.033C177.255 104.714 178.924 110.218 178.924 115.849C178.924 119.587 178.188 123.289 176.758 126.743C175.327 130.197 173.23 133.336 170.587 135.979C167.943 138.623 164.805 140.72 161.351 142.15C157.897 143.581 154.195 144.317 150.456 144.317ZM185.648 115.849C185.648 108.888 183.584 102.084 179.717 96.2971C175.85 90.5098 170.354 85.9992 163.924 83.3356C157.493 80.672 150.417 79.9751 143.591 81.333C136.764 82.6909 130.493 86.0426 125.572 90.9643C120.65 95.886 117.298 102.157 115.94 108.983C114.583 115.81 115.279 122.886 117.943 129.316C120.607 135.747 125.117 141.243 130.905 145.11C136.692 148.977 143.496 151.041 150.456 151.041C155.078 151.041 159.654 150.131 163.924 148.363C168.194 146.594 172.073 144.002 175.341 140.734C178.609 137.466 181.202 133.586 182.97 129.317C184.738 125.047 185.649 120.47 185.648 115.849Z" fill="#0362F2"/>
<path d="M94.1948 49.4258C93.922 39.3713 81.0564 31.2744 65.2249 31.2744C49.3934 31.2744 36.5279 39.3713 36.2551 49.4258V239.369C36.2551 249.572 49.2298 257.846 65.2315 257.846C81.2332 257.846 94.2079 249.572 94.2079 239.369V49.7619C94.2013 49.6419 94.197 49.5437 94.1948 49.4258Z" fill="#FBD0D0"/>
<path d="M65.2246 257.846C81.2279 257.846 94.201 249.573 94.201 239.369C94.201 229.165 81.2279 220.892 65.2246 220.892C49.2214 220.892 36.2482 229.165 36.2482 239.369C36.2482 249.573 49.2214 257.846 65.2246 257.846Z" fill="white"/>
<path d="M70.024 257.846C55.3907 257.47 44.0354 250.087 44.6618 241.353C45.1637 234.369 55.0611 228.943 66.7678 229.242C76.1349 229.482 83.4024 234.207 83.0009 239.797C82.6801 244.271 76.3444 247.739 68.852 247.549C62.859 247.394 58.2061 244.371 58.4636 240.783C58.6687 237.922 62.7237 235.7 67.5186 235.825C71.3553 235.921 74.3322 237.857 74.1685 240.148" stroke="#616161" stroke-width="1.962" stroke-linecap="round" stroke-linejoin="round"/>
</svg>
