<svg width="245" height="213" viewBox="0 0 245 213" fill="none" xmlns="http://www.w3.org/2000/svg">
<path d="M180.362 178.746C180.375 178.347 180.292 177.951 180.119 177.592L180.248 172.369C180.204 165.376 178.694 158.47 175.814 152.098C175.814 152.098 169.631 140.581 156.531 135.882C155.418 135.482 154.289 135.127 153.148 134.817C151.916 134.485 150.669 134.21 149.411 133.994C149.196 133.969 148.98 133.905 148.79 133.88C143.24 138.864 136.042 141.617 128.583 141.608H125.504C118.045 141.617 110.846 138.864 105.297 133.88C105.107 133.905 104.892 133.969 104.675 133.994C103.418 134.21 102.171 134.485 100.939 134.817C100.939 134.817 99.2159 135.273 97.5559 135.881C84.4559 140.581 78.2612 152.097 78.2612 152.097C75.3929 158.474 73.8827 165.377 73.8264 172.369C73.8264 172.369 73.9074 175.798 73.8808 175.93C73.8124 176.278 73.8264 196.389 73.8264 196.389C73.8264 206.702 82.5557 214.278 92.5647 211.796L127.037 203.281L161.522 211.795C171.531 214.278 180.248 206.702 180.248 196.389V185.049C180.221 185.052 180.195 185.059 180.171 185.069L180.362 178.746Z" fill="#FABF62"/>
<path d="M151.751 180.979C150.966 175.678 153.42 166.901 153.42 166.901C153.42 166.901 168.369 165.935 172.163 170.1C175.956 174.265 178.41 179.396 178.261 181.478C178.112 183.561 173.703 191.125 173.703 191.125C173.703 191.125 170.229 186.983 168.221 186.015C166.212 185.048 151.751 180.979 151.751 180.979ZM71.5347 181.925C70.9783 178.399 74.4351 171.438 77.8564 169.579C81.2776 167.72 88.9382 165.786 91.8387 166.009C94.7392 166.233 102.921 168.166 102.921 168.166C102.921 168.166 97.789 175.38 96.3754 183.189C96.3754 183.189 87.7731 182.024 84.6493 183.363C81.5254 184.703 76.9147 190.354 75.5758 190.206C74.2369 190.057 71.9807 184.751 71.5347 181.925Z" fill="white"/>
<path d="M164.176 212.362C162.75 212.359 161.329 212.182 159.946 211.837L124.388 203.054L88.8292 211.836C86.4088 212.48 83.8718 212.554 81.4183 212.05C78.9648 211.546 76.6619 210.479 74.6912 208.933C72.5823 207.24 70.8891 205.087 69.741 202.638C68.593 200.189 68.0207 197.51 68.0679 194.806V183.079H70.1621V194.807C70.1162 197.193 70.6169 199.558 71.6257 201.72C72.6346 203.883 74.1249 205.787 75.9826 207.285C77.705 208.632 79.7165 209.56 81.8588 209.997C84.0011 210.434 86.2156 210.368 88.328 209.804L124.388 200.897L160.448 209.804C162.56 210.369 164.774 210.435 166.917 209.998C169.059 209.561 171.071 208.632 172.793 207.285C174.651 205.787 176.141 203.883 177.15 201.72C178.159 199.558 178.659 197.193 178.613 194.807V169.856C178.563 161.005 177.307 155.238 174.13 149.293C174.044 149.118 166.785 134.755 152.518 130.617C149.679 129.797 146.777 129.215 143.841 128.879C143.085 129.569 142.337 130.266 141.595 130.972C137.254 135.08 133.153 138.96 125.989 138.96H122.787C115.622 138.96 111.521 135.08 107.179 130.972C106.462 130.294 105.725 129.596 104.962 128.903C102.466 129.328 100.013 129.974 97.6311 130.835C83.1183 136.475 78.9124 141.827 74.9229 148.239C72.0399 152.873 70.2152 161.664 70.1621 171.183V179.069H68.0679V171.177C68.1238 161.288 70.0686 152.076 73.1457 147.132C77.3431 140.385 81.7563 134.757 96.873 128.883C99.5583 127.921 102.326 127.208 105.142 126.751L105.623 126.683L105.986 127.007C106.904 127.828 107.775 128.653 108.619 129.45C112.824 133.43 116.456 136.866 122.787 136.866H125.989C132.32 136.866 135.951 133.43 140.157 129.451C141 128.653 141.871 127.828 142.789 127.007L143.152 126.683L143.718 126.76C146.894 127.101 150.034 127.719 153.102 128.606C168.272 133.006 175.684 147.711 175.993 148.336C179.286 154.499 180.656 160.74 180.708 169.85V194.806C180.755 197.51 180.182 200.189 179.034 202.638C177.886 205.086 176.192 207.24 174.084 208.933C171.264 211.163 167.771 212.372 164.176 212.362V212.362ZM152.501 94.9877L150.447 94.5821C150.706 93.2691 151.745 92.4928 152.845 91.6712C154.305 90.5815 155.958 89.3466 156.66 86.4678C157.373 83.5408 157.116 81.4361 155.953 80.6934C155.472 80.4537 154.933 80.3584 154.399 80.4191C153.866 80.4798 153.361 80.6939 152.947 81.0354L151.641 79.3977C152.395 78.7821 153.318 78.4081 154.288 78.3245C155.258 78.2408 156.231 78.4513 157.08 78.9286C158.234 79.6658 159.979 81.6902 158.694 86.9634C157.814 90.5731 155.666 92.178 154.098 93.3494C153.264 93.9727 152.604 94.4649 152.501 94.9877ZM96.6496 94.9877C96.547 94.4642 95.888 93.9727 95.0531 93.3494C93.4846 92.178 91.3359 90.5738 90.4564 86.9641C89.1719 81.6902 90.9171 79.6658 92.0717 78.9286C92.9206 78.4514 93.8935 78.2409 94.8637 78.3246C95.8339 78.4083 96.7564 78.7822 97.511 79.3977L96.205 81.0354C95.7908 80.6937 95.2863 80.4794 94.7527 80.4187C94.2192 80.358 93.6795 80.4534 93.1991 80.6934C92.0361 81.4361 91.7785 83.5408 92.4905 86.4678C93.1921 89.3459 94.8465 90.5815 96.3062 91.6712C97.4056 92.4928 98.4451 93.2691 98.7047 94.5821L96.6496 94.9877Z" fill="#1C3E58"/>
<path d="M105.301 148.633L103.515 128.865L105.602 128.677L107.106 145.344L122.668 137.31L123.63 139.171L105.301 148.633ZM142.754 148.614L123.96 139.176L124.899 137.304L140.945 145.363L142.452 128.677L144.537 128.865L142.754 148.614ZM98.2331 84.1761L96.5906 81.9367C93.8472 78.1992 89.4912 70.6622 91.1275 62.1716C91.7716 58.9423 93.0634 55.877 94.9248 53.1607C96.7863 50.4444 99.1788 48.1334 101.958 46.3673C103.775 45.3105 105.704 44.4583 107.709 43.8263C110.347 42.9056 112.431 42.1789 114.06 39.8355C115.256 38.0343 115.91 35.9276 115.944 33.7658L115.988 32.7417L117.012 32.7626C137.01 33.178 153.795 44.5844 156.923 59.884C158.682 68.4814 155.675 76.237 152.843 81.2296L152.291 82.2027L151.355 81.587C150.853 81.2554 150.141 80.8212 149.272 80.2899C143.841 76.9699 132.538 70.0632 126.473 60.8836L128.219 59.729C134.028 68.5191 145.062 75.2625 150.364 78.5029C150.801 78.7696 151.198 79.0125 151.55 79.231C154.032 74.5504 156.392 67.7366 154.872 60.3035C151.989 46.2046 136.549 35.6268 117.961 34.8869C117.77 37.087 117.019 39.2017 115.78 41.0299C113.762 43.9331 111.157 44.8413 108.399 45.8033C106.534 46.3867 104.739 47.176 103.048 48.1564C100.515 49.7679 98.3359 51.8757 96.6407 54.3526C94.9454 56.8295 93.7695 59.6242 93.184 62.5681C91.9861 68.7816 94.3791 74.5085 96.682 78.3095C96.9337 75.7065 97.4108 73.1303 98.1082 70.6098C98.9836 67.7715 100.632 63.7269 101.964 61.8225L102.689 60.7852L103.572 61.692C103.848 61.9754 104.149 62.2896 104.472 62.6288C107.855 66.168 113.518 72.0918 121.88 74.9337C127.056 76.6903 132.504 77.5128 137.969 77.363L138.023 79.4558C132.311 79.6143 126.617 78.7546 121.207 76.9169C112.403 73.9243 106.307 67.5774 103.009 64.1283C101.838 66.4058 100.868 68.7813 100.11 71.2276C99.1888 74.2168 98.7371 78.4708 98.4775 81.4097L98.2331 84.1761Z" fill="#1C3E58"/>
<path d="M122.979 138.807H125.073V171.432H122.979V138.807Z" fill="#1C3E58"/>
<path d="M119.319 171.263L152.75 165.408L153.111 167.471L119.681 173.326L119.319 171.263Z" fill="#1C3E58"/>
<path d="M73.7505 191.184C73.5984 191.184 73.4466 191.171 73.2967 191.145C72.895 191.078 72.5144 190.918 72.1852 190.678C71.8561 190.438 71.5875 190.125 71.4008 189.763L68.4786 184.164C67.9779 183.202 67.7138 182.134 67.7085 181.049C67.7031 179.964 67.9567 178.894 68.4479 177.927L71.4873 171.96C72.6618 169.64 74.707 167.879 77.1759 167.063L80.5664 165.933C84.8872 164.495 89.5046 164.19 93.977 165.047L101.367 166.467L101.844 166.714L152.201 179.539L151.684 181.569L101.092 168.684L100.672 168.466L93.5819 167.103C89.4624 166.314 85.2094 166.596 81.2296 167.92L77.8384 169.049C75.8918 169.693 74.2791 171.081 73.3533 172.91L70.3146 178.878C69.9743 179.547 69.7987 180.288 69.8024 181.039C69.806 181.79 69.9888 182.53 70.3355 183.196L73.2576 188.794C73.2964 188.869 73.3518 188.934 73.4198 188.983C73.4877 189.033 73.5662 189.066 73.6491 189.08C73.732 189.095 73.8171 189.089 73.8977 189.065C73.9782 189.041 74.0521 188.998 74.1135 188.941L79.5591 184.067C81.728 182.04 84.587 180.915 87.5555 180.92L87.7586 180.94L94.2283 182.218L93.822 184.272L87.4556 183.016C85.0452 183.037 82.731 183.964 80.972 185.612L75.5271 190.486C75.045 190.936 74.4097 191.185 73.7505 191.183V191.184Z" fill="#1C3E58"/>
<path d="M124.28 203.063L93.1923 195.665L92.9235 193.434C92.3793 188.842 92.768 184.188 94.0664 179.75C95.3648 175.312 97.5461 171.182 100.479 167.608L102.095 168.94C99.3412 172.295 97.2936 176.172 96.0749 180.338C94.8561 184.504 94.4913 188.873 95.0024 193.183L95.0973 193.966L124.765 201.027L124.28 203.063ZM174.388 191.413C173.838 191.413 173.308 191.203 172.908 190.826L166.511 185.504C165.258 184.335 157.142 182.517 151.764 181.586L150.985 181.451L150.902 180.666C150.37 175.784 150.88 170.845 152.398 166.174L152.621 165.484L153.228 165.367C158.348 164.383 163.529 164.569 167.444 165.873L170.832 167.003C173.3 167.819 175.345 169.579 176.519 171.899L179.559 177.866C180.05 178.833 180.304 179.904 180.299 180.989C180.293 182.074 180.029 183.142 179.528 184.105L176.326 190.241C176.172 190.539 175.95 190.798 175.678 190.996C175.407 191.194 175.093 191.326 174.761 191.381C174.638 191.402 174.513 191.413 174.388 191.413ZM152.909 179.661C156.303 180.272 165.977 182.141 167.896 183.934L174.292 189.256C174.345 189.303 174.365 189.324 174.408 189.316C174.421 189.315 174.434 189.31 174.445 189.302C174.455 189.295 174.464 189.284 174.469 189.272L177.671 183.136C178.018 182.47 178.201 181.731 178.205 180.979C178.209 180.228 178.033 179.486 177.692 178.817L174.653 172.849C173.728 171.02 172.115 169.632 170.169 168.989L166.781 167.86C163.403 166.735 158.754 166.536 154.234 167.313C153.005 171.306 152.555 175.498 152.909 179.661ZM124.492 109.695C121.252 109.695 116.943 107.342 116.76 107.242L117.77 105.408C117.81 105.429 121.791 107.601 124.491 107.601C127.495 107.601 131.143 105.447 131.18 105.425L132.251 107.224C132.082 107.325 128.065 109.695 124.491 109.695L124.492 109.695ZM124.434 100.84C122.824 100.86 121.25 100.358 119.948 99.4087C119.828 99.3106 119.732 99.1872 119.666 99.0474C119.6 98.9076 119.566 98.7549 119.566 98.6003L119.553 83.4732C119.551 82.7708 119.271 82.0977 118.774 81.6013C118.277 81.1049 117.604 80.8256 116.901 80.8247H108.07V78.7305H116.901C118.159 78.7323 119.364 79.2323 120.254 80.121C121.143 81.0096 121.644 82.2145 121.647 83.4718L121.66 98.0349C122.509 98.5038 123.464 98.7483 124.434 98.7455C125.561 98.7632 126.665 98.4294 127.592 97.7906L128.922 99.408C127.62 100.357 126.045 100.859 124.434 100.84Z" fill="#1C3E58"/>
<path d="M124.789 124.513C122.251 124.52 119.738 124.024 117.393 123.053C115.049 122.082 112.921 120.655 111.131 118.856L104.376 112.101C101.898 109.637 99.9341 106.706 98.5969 103.478C97.2596 100.25 96.576 96.7885 96.5855 93.2944V78.2091H98.6797V93.2944C98.6711 96.5134 99.3009 99.7022 100.533 102.676C101.765 105.65 103.574 108.35 105.857 110.62L112.612 117.376C114.207 118.98 116.105 120.251 118.195 121.117C120.285 121.983 122.526 122.425 124.789 122.419C127.096 122.414 129.378 121.948 131.502 121.048C133.626 120.148 135.549 118.833 137.158 117.18L143.552 110.58C147.991 106.016 150.469 99.8969 150.456 93.5303V79.1948H152.55V93.5303C152.565 100.441 149.875 107.083 145.056 112.037L138.662 118.638C136.857 120.492 134.701 121.967 132.318 122.976C129.936 123.985 127.376 124.508 124.789 124.513Z" fill="#1C3E58"/>
<path d="M65.8774 208.284H0.71408V176.223H2.80829V206.19H65.8774V208.284Z" fill="#FABF62"/>
<path d="M34.3576 191.669H43.1652V193.763H34.3576V191.669ZM30.787 176.009H46.0224V178.103H30.787V176.009Z" fill="#1C3E58"/>
<path d="M42.8492 181.891L65.8351 174.609L66.4678 176.606L43.4819 183.889L42.8492 181.891Z" fill="#FABF62"/>
<path d="M45.7835 151.608H69.0264V153.702H45.7835V151.608ZM33.3146 183.883L0 172.885V157.387C0.00166299 155.855 0.61101 154.387 1.69435 153.303C2.77769 152.22 4.24654 151.611 5.77861 151.609H31.5025V153.703H5.77791C4.80103 153.704 3.86443 154.092 3.17367 154.783C2.48291 155.474 2.09443 156.411 2.09351 157.387V171.371L33.9708 181.895L33.3146 183.883Z" fill="#FABF62"/>
<path d="M44.4509 201.38H32.3583V149.465H44.4509V201.38ZM34.4525 199.286H42.3567V151.559H34.4525V199.286Z" fill="#1C3E58"/>
<path d="M37.5959 177.391H39.6901V182.175H37.5959V177.391ZM49.7046 149.19H47.6104V144.771H29.0195V149.19H26.9253V143.945C26.9256 143.609 27.0593 143.286 27.297 143.049C27.5346 142.811 27.8569 142.677 28.193 142.677H48.437C48.7731 142.677 49.0953 142.811 49.3329 143.049C49.5706 143.286 49.7043 143.609 49.7046 143.945V149.19Z" fill="#1C3E58"/>
<path d="M54.33 149.025H52.2358V144.115C52.2345 142.949 51.7708 141.831 50.9463 141.007C50.1219 140.182 49.004 139.718 47.838 139.717H28.7919C27.6258 139.718 26.5079 140.182 25.6833 141.006C24.8587 141.83 24.3948 142.948 24.3933 144.114V149.025H22.2991V144.115C22.301 142.394 22.9855 140.743 24.2026 139.526C25.4197 138.309 27.0699 137.624 28.7912 137.622H47.838C49.5591 137.624 51.2092 138.309 52.4263 139.526C53.6433 140.743 54.328 142.393 54.33 144.114V149.025ZM13.4267 203.524H5.23691V195.573H7.33112V201.429H13.4267V203.524ZM188.798 111.929C187.267 111.927 185.753 111.605 184.355 110.981C182.956 110.358 181.704 109.448 180.68 108.31C179.655 107.172 178.881 105.832 178.407 104.376C177.933 102.92 177.771 101.381 177.929 99.8577C178.088 98.3348 178.565 96.8623 179.329 95.5354C180.093 94.2085 181.128 93.0568 182.365 92.1549C183.602 91.2531 185.015 90.6211 186.512 90.2999C188.01 89.9787 189.557 89.9755 191.056 90.2905L190.625 92.34C188.728 91.9412 186.752 92.1778 185.003 93.0131C183.253 93.8484 181.827 95.2362 180.944 96.9622C180.062 98.6883 179.771 100.657 180.118 102.564C180.465 104.472 181.43 106.212 182.864 107.517C184.298 108.822 186.121 109.618 188.053 109.784C189.984 109.95 191.917 109.476 193.552 108.434C195.188 107.393 196.435 105.843 197.102 104.022C197.769 102.202 197.818 100.213 197.243 98.3615L199.242 97.7403C199.75 99.3773 199.867 101.111 199.582 102.801C199.298 104.492 198.62 106.092 197.604 107.472C196.588 108.853 195.262 109.975 193.732 110.749C192.203 111.523 190.513 111.927 188.799 111.929H188.798Z" fill="#1C3E58"/>
<path d="M188.798 121.628C185.549 121.627 182.346 120.86 179.45 119.388C176.553 117.916 174.045 115.781 172.13 113.156C170.215 110.532 168.947 107.492 168.428 104.285C167.91 101.077 168.156 97.7926 169.148 94.6984C170.139 91.6042 171.846 88.7878 174.132 86.4783C176.417 84.1689 179.215 82.4317 182.299 81.4082C185.382 80.3848 188.664 80.1039 191.877 80.5885C195.09 81.0731 198.142 82.3095 200.787 84.1971L199.57 85.9004C195.806 83.2159 191.176 82.0348 186.587 82.589C181.997 83.1433 177.781 85.3928 174.765 88.896C171.749 92.3992 170.152 96.9031 170.286 101.524C170.42 106.144 172.276 110.548 175.491 113.87C178.705 117.192 183.045 119.193 187.658 119.48C192.272 119.767 196.826 118.319 200.427 115.421C204.028 112.522 206.416 108.383 207.121 103.814C207.827 99.2459 206.8 94.5787 204.241 90.7289L205.983 89.568C208.049 92.6767 209.233 96.2874 209.41 100.016C209.586 103.744 208.748 107.451 206.984 110.74C205.221 114.03 202.598 116.78 199.396 118.697C196.193 120.614 192.531 121.627 188.798 121.628Z" fill="#1C3E58"/>
<path d="M190.688 102.667C190.092 102.668 189.51 102.49 189.016 102.156C188.522 101.823 188.139 101.35 187.916 100.797C187.693 100.244 187.64 99.6377 187.765 99.0549C187.889 98.4722 188.185 97.94 188.615 97.5267L214.9 71.465V58.5494L228.004 45.4459V61.4212L227.694 61.7284L190.078 99.0241C189.989 99.1076 189.918 99.2083 189.869 99.3199C189.82 99.4316 189.794 99.552 189.792 99.674C189.791 99.7934 189.814 99.9119 189.859 100.022C189.904 100.133 189.971 100.233 190.056 100.318C190.223 100.483 190.448 100.577 190.684 100.579C190.919 100.581 191.146 100.492 191.316 100.329L229.028 62.9409H245L231.895 76.0451H218.785L192.779 101.828C192.217 102.368 191.468 102.669 190.688 102.667ZM220.898 73.9509H231.027L239.944 65.0351H229.89L220.898 73.9509ZM216.994 59.4171V69.389L225.91 60.5486V50.5013L216.994 59.4171Z" fill="#FABF62"/>
<path d="M166.683 83.7391L165.031 82.4498C165.625 81.6904 166.255 80.9596 166.918 80.2599L168.438 81.7C167.821 82.3514 167.235 83.0319 166.683 83.7391ZM170.382 79.8383L169.006 78.2586C169.733 77.6258 170.49 77.0276 171.273 76.4659L172.492 78.1692C171.763 78.6916 171.059 79.2484 170.382 79.8376V79.8383ZM203.003 76.8003C202.229 76.3454 201.433 75.9278 200.619 75.5487L201.503 73.6499C202.377 74.0573 203.231 74.5059 204.063 74.9944L203.003 76.8003ZM174.752 76.7095L173.702 74.8974C174.533 74.4157 175.397 73.9689 176.27 73.5696L177.141 75.474C176.325 75.8475 175.528 76.2599 174.752 76.7095ZM198.129 74.533C197.282 74.2349 196.422 73.9777 195.551 73.7623L196.053 71.7295C196.987 71.9599 197.919 72.2391 198.826 72.5581L198.129 74.533ZM179.638 74.4736L178.954 72.4946C179.865 72.1796 180.791 71.9089 181.728 71.6834L182.219 73.7197C181.347 73.9291 180.485 74.1807 179.638 74.4736ZM192.911 73.2436C192.022 73.1138 191.128 73.0259 190.232 72.9805L190.336 70.889C191.298 70.9379 192.267 71.0321 193.214 71.1718L192.911 73.2436ZM184.859 73.2178L184.567 71.1438C185.523 71.0098 186.484 70.9215 187.447 70.8793L187.538 72.9714C186.644 73.0105 185.744 73.0928 184.859 73.2178ZM188.801 131.137C187.902 131.137 187.003 131.097 186.108 131.017L186.295 128.93C186.944 128.989 187.608 129.024 188.268 129.037C188.449 129.04 188.63 129.042 188.81 129.042L188.984 129.042L188.997 131.136H188.803L188.801 131.137ZM191.881 130.981L191.67 128.897C192.563 128.807 193.45 128.673 194.33 128.497L194.742 130.551C193.8 130.739 192.838 130.884 191.881 130.981ZM183.243 130.625C182.294 130.448 181.354 130.226 180.427 129.958L181.007 127.946C181.87 128.194 182.744 128.401 183.626 128.566L183.243 130.625ZM197.545 129.847L196.937 127.844C197.796 127.583 198.642 127.282 199.471 126.94L200.268 128.877C199.378 129.243 198.46 129.57 197.545 129.847ZM177.69 129.024C176.793 128.668 175.914 128.269 175.056 127.828L176.011 125.965C176.81 126.374 177.627 126.745 178.462 127.076L177.69 129.024ZM202.887 127.648L201.907 125.797C202.699 125.377 203.471 124.919 204.22 124.425L205.373 126.173C204.569 126.704 203.739 127.196 202.887 127.648ZM172.549 126.386C171.737 125.866 170.95 125.306 170.191 124.711L171.486 123.063C172.192 123.618 172.924 124.138 173.679 124.623L172.549 126.386ZM207.708 124.468L206.393 122.837C207.092 122.274 207.763 121.678 208.404 121.05L209.869 122.548C209.179 123.222 208.458 123.862 207.708 124.468ZM168.007 122.817C167.309 122.152 166.643 121.454 166.012 120.725L167.595 119.354C168.182 120.032 168.802 120.682 169.452 121.301L168.007 122.817ZM211.838 120.432L210.237 119.081C210.814 118.397 211.364 117.678 211.874 116.944L213.595 118.137C213.045 118.929 212.459 119.695 211.838 120.432H211.838ZM215.126 115.684L213.298 114.662C213.736 113.879 214.136 113.076 214.496 112.254L216.414 113.095C216.027 113.978 215.597 114.842 215.126 115.684ZM217.445 110.394L215.456 109.741C215.735 108.889 215.973 108.024 216.169 107.149L218.213 107.606C218.004 108.544 217.745 109.482 217.445 110.394ZM218.709 104.759L216.63 104.498C216.741 103.617 216.809 102.714 216.836 101.816L218.929 101.877C218.901 102.841 218.827 103.802 218.708 104.759H218.709ZM216.787 99.1245C216.728 98.2292 216.627 97.3372 216.483 96.4516L218.55 96.1145C218.704 97.0589 218.813 98.0251 218.878 98.987L216.787 99.1245ZM215.923 93.8206C215.694 92.9534 215.424 92.0977 215.112 91.2566L217.075 90.5292C217.41 91.4325 217.703 92.3602 217.948 93.2866L215.923 93.8206ZM214.058 88.7826C213.666 87.9748 213.236 87.1862 212.769 86.4197L214.558 85.33C215.059 86.154 215.521 87.0012 215.942 87.8689L214.058 88.7826Z" fill="#1C3E58"/>
<path d="M165.156 72.8689L163.808 71.2668C170.808 65.3857 179.657 62.1606 188.799 62.1584C197.395 62.1297 205.752 64.9807 212.538 70.2567L211.256 71.9139C204.837 66.9226 196.931 64.2254 188.799 64.2526C180.15 64.2544 171.779 67.3053 165.156 72.8689ZM188.798 139.828C183.888 139.836 179.021 138.908 174.457 137.093L175.232 135.147C182.679 138.104 190.89 138.545 198.611 136.403C206.333 134.261 213.143 129.654 218.004 123.284C222.865 116.913 225.511 109.129 225.538 101.115C225.565 93.1023 222.972 85.2998 218.154 78.8967L219.826 77.636C224.166 83.4029 226.814 90.2653 227.471 97.4531C228.128 104.641 226.77 111.87 223.547 118.328C220.325 124.787 215.367 130.219 209.229 134.017C203.091 137.814 196.016 139.826 188.798 139.827V139.828ZM72.7041 125.51C66.3933 125.51 60.341 123.003 55.8787 118.541C51.4163 114.079 48.9093 108.026 48.9093 101.716C48.9093 95.4047 51.4163 89.3525 55.8787 84.8901C60.341 80.4277 66.3933 77.9208 72.7041 77.9208H73.7512V118.28H71.657V80.0394C68.0294 80.2148 64.5038 81.2979 61.4034 83.1893C58.3029 85.0808 55.7268 87.7201 53.911 90.8655C52.0953 94.0108 51.098 97.5616 51.0105 101.192C50.9231 104.823 51.7482 108.418 53.4105 111.647C55.0727 114.876 57.5188 117.636 60.5245 119.675C63.5303 121.713 66.9996 122.965 70.6146 123.315C74.2295 123.665 77.8745 123.102 81.2154 121.677C84.5563 120.253 87.4863 118.013 89.7369 115.163L91.3802 116.461C89.1586 119.289 86.3223 121.573 83.0863 123.141C79.8504 124.709 76.2998 125.519 72.7041 125.51Z" fill="#FABF62"/>
<path d="M69.6486 125.033C69.2158 124.719 59.0554 117.139 59.5838 100.824C60.1409 83.4872 69.6667 78.3403 70.0723 78.1295L71.0377 79.9877L70.5554 79.0586L71.0419 79.9857C70.9533 80.0324 62.1918 84.861 61.6766 100.891C61.1866 116.053 70.7843 123.269 70.8814 123.34L69.6486 125.033ZM75.9451 125.031L74.7096 123.34C74.8059 123.27 84.4057 116.023 83.9143 100.796C83.8657 96.179 82.8513 91.6228 80.9363 87.4208L82.8211 86.5098C84.8649 90.9751 85.9502 95.819 86.0071 100.729C86.5355 117.106 76.3779 124.715 75.9451 125.031Z" fill="#FABF62"/>
<path d="M51.6955 92.9012H84.1955V94.9954H51.6955V92.9012ZM51.5929 108.435H83.9205V110.53H51.5929V108.435ZM24.7466 98.1975L19.0552 85.5303L34.1084 87.4277L24.7466 98.1975ZM22.4939 88.0748L25.3148 94.3518L29.9535 89.0151L22.4939 88.0748ZM242.765 148.368L242.336 136.57L233.177 145.679L229.661 138.417L224.35 140.648L223.539 138.718L230.681 135.716L233.783 142.123L244.254 131.708L244.857 148.292L242.765 148.368ZM168.326 43.3991V33.0132C161.265 30.9001 156.037 24.0891 156.037 16.8341C156.064 12.3488 157.869 8.05752 161.057 4.90165C164.244 1.74578 168.553 -0.0169675 173.038 0.000123126H187.254C191.752 0.02892 196.056 1.83589 199.226 5.02659C202.397 8.21729 204.176 12.5326 204.176 17.0306C204.176 21.5285 202.397 25.8438 199.226 29.0345C196.056 32.2252 191.752 34.0322 187.254 34.061H178.435L168.326 43.3991ZM173.038 2.09503C169.108 2.07738 165.331 3.61931 162.537 6.38256C159.742 9.14581 158.158 12.9047 158.131 16.8348C158.131 23.4231 163.071 29.5968 169.621 31.1968L170.42 31.3923V38.6138L177.615 31.9675H187.254C191.198 31.9405 194.971 30.355 197.75 27.5569C200.529 24.7587 202.089 20.975 202.089 17.0313C202.089 13.0875 200.529 9.30383 197.75 6.50567C194.971 3.70751 191.198 2.12199 187.254 2.09503H173.038Z" fill="#FABF62"/>
<path d="M167.439 12.4217H193.218V14.5159H167.439V12.4217ZM167.439 19.4065H188.243V21.5008H167.439V19.4065Z" fill="#1C3E58"/>
<path d="M195.265 171.812H234.088V173.907H195.265V171.812Z" fill="#FABF62"/>
<path d="M201.358 159.054H203.453V166.671H201.358V159.054ZM225.16 159.054H227.254V166.671H225.16V159.054Z" fill="#1C3E58"/>
<path d="M206.118 173.336H208.213V199.041H206.118V173.336ZM220.399 173.336H222.494V199.041H220.399V173.336Z" fill="#FABF62"/>
<path d="M196.216 184.189H233.346V186.283H196.216V184.189Z" fill="#FABF62"/>
<path d="M234.87 199.612H193.741V162.291H234.871L234.87 199.612ZM195.835 197.518H232.777V164.386H195.834L195.835 197.518Z" fill="#1C3E58"/>
<path d="M128.809 11.8465C127.747 11.8465 126.709 11.5315 125.825 10.9413C124.942 10.3512 124.254 9.51242 123.847 8.53105C123.441 7.54968 123.334 6.4698 123.541 5.42796C123.749 4.38612 124.26 3.4291 125.011 2.67794C125.762 1.92677 126.719 1.41518 127.761 1.20787C128.803 1.00055 129.883 1.10681 130.864 1.51322C131.845 1.91962 132.684 2.60792 133.275 3.49108C133.865 4.37423 134.18 5.41258 134.18 6.47482C134.179 7.89889 133.612 9.26423 132.605 10.2713C131.598 11.2783 130.233 11.8448 128.809 11.8465ZM128.809 3.19809C128.161 3.19809 127.528 3.39026 126.989 3.75032C126.45 4.11037 126.03 4.62213 125.782 5.22087C125.534 5.81962 125.469 6.47846 125.595 7.11408C125.722 7.74971 126.034 8.33356 126.492 8.79182C126.95 9.25008 127.534 9.56216 128.17 9.68859C128.806 9.81503 129.464 9.75014 130.063 9.50213C130.662 9.25412 131.174 8.83414 131.534 8.29528C131.894 7.75642 132.086 7.1229 132.086 6.47482C132.085 5.60612 131.739 4.77331 131.125 4.15904C130.511 3.54478 129.678 3.19919 128.809 3.19809ZM75.7126 56.9403L39.4563 56.874V5.01586H77.2295L86.8203 15.1602V48.6124H84.7261V15.9937L76.3269 7.11007H41.5505V54.7833L75.7168 54.8461L75.7126 56.9403Z" fill="#FABF62"/>
<path d="M85.7731 17.7718H74.8853V6.06309H76.9796V15.6776H85.7731V17.7718Z" fill="#FABF62"/>
<path d="M53.4626 22.6406L49.0034 18.1806L50.484 16.7L53.4626 19.6787L58.5669 14.5744L60.0475 16.0557L53.4626 22.6406ZM53.4626 35.2701L49.0034 30.8101L50.484 29.3295L53.4626 32.3081L58.5669 27.2046L60.0475 28.6852L53.4626 35.2701ZM53.4626 48.1452L49.0034 43.686L50.484 42.2054L53.4626 45.184L58.5669 40.0798L60.0475 41.5604L53.4626 48.1452ZM64.2869 31.7525H77.9006V33.8467H64.2869V31.7525ZM64.2869 20.7412H77.9006V22.8354H64.2869V20.7412ZM64.2869 42.8539H77.7366V44.9481H64.2869V42.8539ZM107.506 130.027L106.348 128.281C111.391 124.936 110.831 118.213 110.824 118.145L112.909 117.952C112.94 118.279 113.58 125.997 107.506 130.027ZM141.907 130.027C135.828 125.993 136.475 118.924 136.506 118.625L138.589 118.838C138.565 119.084 138.058 124.96 143.065 128.281L141.907 130.027ZM128.04 115.334C126.881 114.766 125.615 114.45 124.325 114.405C123.171 114.417 122.038 114.722 121.034 115.292L119.906 113.528C121.246 112.741 122.771 112.321 124.325 112.31C125.957 112.354 127.559 112.754 129.02 113.483L128.04 115.334ZM114.174 86.7715C114.174 87.2205 114.041 87.6595 113.791 88.0329C113.542 88.4063 113.188 88.6974 112.773 88.8693C112.358 89.0412 111.902 89.0863 111.461 88.9988C111.021 88.9113 110.616 88.6951 110.299 88.3777C109.981 88.0602 109.765 87.6557 109.677 87.2153C109.589 86.7749 109.634 86.3185 109.806 85.9036C109.978 85.4888 110.269 85.1342 110.642 84.8847C111.016 84.6352 111.455 84.5021 111.904 84.5021C112.202 84.5021 112.497 84.5608 112.772 84.6749C113.048 84.789 113.298 84.9562 113.509 85.167C113.72 85.3778 113.887 85.628 114.001 85.9034C114.115 86.1789 114.174 86.4741 114.174 86.7722V86.7715ZM137.665 86.7715C137.665 87.2205 137.532 87.6595 137.283 88.0329C137.033 88.4063 136.679 88.6974 136.264 88.8693C135.849 89.0412 135.393 89.0863 134.953 88.9988C134.512 88.9113 134.108 88.6951 133.79 88.3777C133.472 88.0602 133.256 87.6557 133.169 87.2153C133.081 86.7749 133.126 86.3185 133.298 85.9036C133.469 85.4888 133.76 85.1342 134.134 84.8847C134.507 84.6352 134.946 84.5021 135.395 84.5021C135.693 84.5021 135.988 84.5608 136.264 84.6749C136.539 84.789 136.789 84.9562 137 85.167C137.211 85.3778 137.378 85.628 137.492 85.9034C137.606 86.1789 137.665 86.4741 137.665 86.7722V86.7715Z" fill="#1C3E58"/>
</svg>
