<svg width="242" height="222" viewBox="0 0 242 222" fill="none" xmlns="http://www.w3.org/2000/svg">
<g clip-path="url(#clip0_303_12975)">
<path d="M138.61 120.5C132.34 138.58 126.58 155.23 120.43 172.96C114.31 155.24 108.59 138.68 102.87 122.13C102.36 122.01 101.86 121.88 101.35 121.76C87.2 143.08 73.05 164.4 58.44 186.4C38.61 156.4 19.28 127.14 0 97.9599C14.42 81.1599 68.77 73.9199 91.55 85.8999C89.39 89.0599 87.66 92.5799 84.99 95.1199C83.56 96.4799 80.33 96.9399 78.26 96.4199C73.1 95.1199 70.46 96.9999 68.71 101.69C65.64 109.88 62.27 117.95 58.49 127.43C54.89 118.58 51.86 111.08 48.81 103.6C45.65 95.8599 44.39 95.1899 36.46 97.3399C32.18 98.4999 27.95 99.8499 22.49 101.48C34.64 119.72 46.26 137.17 58.51 155.56C75.82 129.41 92.42 104.32 109.57 78.4199C112.94 91.2699 116.12 103.38 119.29 115.49C120 115.5 120.71 115.51 121.43 115.52C123.06 109.61 124.73 103.7 126.3 97.7699C127.9 91.7399 129.4 85.6799 131.25 78.4299C148.52 104.47 165.11 129.49 182.44 155.62C194.62 137.18 206.1 119.79 218.34 101.25C211.18 99.3999 204.93 97.2599 198.52 96.4899C196.8 96.2799 193.86 99.8899 192.73 102.33C189.16 110 186.18 117.95 182.44 127.08C180.19 121.6 178.36 117.16 176.55 112.71C174.79 108.39 173.35 103.92 171.18 99.8199C170.29 98.1299 167.82 96.1299 166.14 96.1899C154.94 96.5899 154.19 96.2599 149.59 84.7699C181.92 75.0199 212.21 79.6599 241.72 96.6399C222.02 126.48 202.52 156.01 182.47 186.37C167.88 164.47 153.67 143.13 138.61 120.5Z" fill="#0362F2"/>
<path d="M92 155.44C101.6 174.25 110.69 192.07 120.47 211.23C130.3 191.87 139.43 173.88 148.92 155.2C152.23 160.39 155.35 164.89 157.98 169.66C158.69 170.95 158.46 173.31 157.76 174.75C150.74 189.12 143.62 203.44 136.23 217.62C135.39 219.23 132.72 220.7 130.81 220.8C124 221.18 117.14 221.21 110.34 220.79C108.33 220.66 105.54 219.08 104.62 217.36C97.51 203.99 90.8 190.4 83.89 176.92C81.93 173.1 82.09 169.69 84.7 166.21C87.07 163.04 89.16 159.66 92 155.44Z" fill="#0362F2"/>
<path d="M154.19 73.57C146.84 69.7 146.36 68.23 150.18 61.44C158.46 46.71 155.16 29.54 141.99 18.82C129.31 8.49999 110.77 8.87 98.41 19.69C85.84 30.69 83.2499 47.66 91.9299 62.17C95.3399 67.87 94.7499 69.43 87.6399 73.63C77.5699 66.53 72.74 47.12 77.3 32.1C82.91 13.62 100.2 0.159995 120.35 -4.95114e-06C138.71 -0.140005 155.6 9.78999 163.13 29.46C169.15 45.16 165 64.87 154.19 73.57Z" fill="#0362F2"/>
<path d="M145.08 45.1498C144.97 59.3298 134.13 70.0398 119.99 69.9498C106.41 69.8698 95.61 58.6998 95.68 44.8298C95.75 31.1598 106.72 20.6598 120.88 20.7298C134.6 20.7998 145.19 31.4798 145.08 45.1498Z" fill="#0362F2"/>
<path d="M220.92 56.85C220.87 65.97 212.65 74.08 203.63 73.91C194.06 73.72 186.54 65.9 186.59 56.16C186.63 46.52 194.56 38.64 204.03 38.83C213.37 39.02 220.98 47.13 220.92 56.85Z" fill="#0362F2"/>
<path d="M57.1501 56.5999C57.1201 66.3299 49.1701 74.1699 39.5801 73.9099C30.2901 73.6599 22.6401 65.6699 22.7001 56.2699C22.7601 47.0099 30.7801 38.8699 39.8701 38.8399C49.1901 38.8099 57.1801 47.0199 57.1501 56.5999Z" fill="#0362F2"/>
</g>
<defs>
<clipPath id="clip0_303_12975">
<rect width="241.7" height="221.09" fill="white"/>
</clipPath>
</defs>
</svg>
